<svg version="1" xmlns="http://www.w3.org/2000/svg" width="693.333" height="693.333" viewBox="0 0 520.000000 520.000000"><path d="M255 1.7c-1.4.9-6.1 5.1-10.5 9.3-4.4 4.3-9.4 8.5-11.2 9.4-6 3.1-7.4 2.7-25.4-7.2-8.5-4.7-13.3-5.5-17.4-2.8-2.4 1.6-4 3.9-13.7 19.5-3.7 6-7.8 9.1-12.1 9.1-1.6 0-8.5-1.4-15.5-3.1-12-2.9-12.9-3-16.4-1.6-4.9 2-6.1 4.2-9.8 17.2-5.7 19.6-6.2 20-25.8 20.7-9.9.4-14.6 1-16.8 2.1-4.9 2.5-6.4 7.6-6.4 21.2 0 18.9-1.5 20.8-20 26-19.8 5.6-21 7.7-15.9 28.5 4.8 19.4 5.2 18.7-18.3 33.5C8.5 190.7 8 195.2 17.1 211c9.3 16.4 9.2 18.6-2 30.3C5.9 251 2 256.4 2 259.7c0 4 2.9 8.4 11 16.8 13.7 14.2 13.7 14.7 4.5 32C7.7 327 8.3 330 23.7 339c11.2 6.7 14.2 9 15.9 12.2 2 3.8 1.8 6.8-1.6 20.3-1.9 7.5-2.8 13.1-2.4 15.1 1.1 6 5.9 8.9 21.5 12.9 7.6 2 13 4.8 14.9 7.8.9 1.5 1.6 7 2 16.7 1 22.3 1.7 23 23.5 23.9 19.3.8 20 1.3 24.9 18.8 3.4 12 4.3 14.4 6.8 17 3.5 3.7 7.3 3.8 21.6.2 11.6-2.8 13.7-3.1 17.1-2 4.3 1.2 8.3 6 13.6 15.9 3.9 7.3 9 12.9 12.3 13.7 3.7.8 8.9-1.2 19.7-7.4 15-8.6 17.2-8.2 31.3 5.3 9.5 9.1 11.7 10.6 15.7 10.6s6.2-1.5 15.6-10.5c14.2-13.7 16.1-14 31.8-5.2 11.3 6.3 15.9 8 19.5 7.1 3.2-.8 8.3-6.5 12.1-13.6 5.3-9.9 9.3-14.7 13.6-15.9 3.4-1.1 5.5-.8 17.1 2 20.9 5.2 22.3 4.4 28.4-17.2 4.9-17.4 5.6-18 24.9-18.8 21.9-1 22.6-1.7 23.5-22.9.3-8.1 1.1-15.5 1.8-16.7 1.9-3.5 6.1-6.2 12.1-7.9 19.2-5.3 23.5-7.7 24.7-13.9.4-2.1-.6-7.7-2.6-15.8-2.3-8.9-3-13.7-2.6-16.2.9-4.4 5.7-9.2 13.4-13.3 9-4.8 14.2-9 15.8-12.7 1.8-4.4.5-8.4-6.5-21-8.6-15.2-8.3-17.1 3.9-29.9 9.2-9.7 12-13.9 12-17.9 0-3.3-3.9-8.8-11.9-17.2-12.1-12.5-12.4-14.1-5.4-27.2 7.7-14.7 8.3-16.1 8.3-20.2 0-5.4-2.3-7.7-15-15.3-11.1-6.7-15-10.9-15-16 0-1.6 1.4-8.6 3.1-15.6 3-12.1 3-12.9 1.6-16.4-2-4.8-5.7-7-17.4-10.2-11.3-3.2-16.8-5.8-18.5-8.9-.7-1.3-1.4-8.3-1.8-16.9-.5-12.7-.9-15.1-2.6-17.5-3.3-4.4-6.8-5.6-16.3-5.5-11.1.1-19.9-1.3-22.3-3.5-2.9-2.6-5.2-7.8-7.8-17.3-2.7-10.2-5.2-15.5-8.2-17.1-3.4-1.8-9.2-1.4-20.3 1.5-5.4 1.4-11.3 2.6-13.1 2.6-5.2 0-9.2-3.8-16-15-3.4-5.7-7.4-11.5-8.9-12.7-4-3.5-9.6-3-17.5 1.3-15.2 8.4-17.3 9.4-20.2 9.4-4.5 0-8.6-2.6-17.3-11-9.8-9.4-12.1-11-16-11-1.7 0-4.2.7-5.5 1.7zm28.8 35.4c14.7 1.5 33 5.5 46.5 10 14.5 4.7 38.7 16.4 51.2 24.6 49.8 32.8 85.1 84.2 97 141.3 7.2 34.2 6.1 73.2-2.9 106.1-16.7 60.9-58.2 112.1-114.1 140.8-19.6 10.1-43.6 18-66.1 21.8-15.5 2.6-54.3 2.6-69.8 0C138.5 467 68.7 404 45.4 319.1c-9-32.9-10.1-71.9-2.9-106.1 11.9-57.1 47.2-108.5 97-141.3 12.5-8.2 36.7-19.9 51.2-24.6 12.9-4.3 31.7-8.5 44.8-9.9 11.4-1.3 36.9-1.4 48.3-.1z"/><path d="M246 52c-92.9 6.4-171 75-189.5 166.4-3.9 19.2-5.1 37.8-3.7 55.8 7.7 97.4 78.3 174.8 174.7 191.5 14 2.4 50.9 2.4 65 0 53.2-9.2 98.3-35.4 131-76.2 65-80.9 59.4-198.1-13-274.4-25.8-27.2-62.4-48.3-99.5-57.5-20.1-4.9-44.5-7-65-5.6zm41.9 21.6c60.2 8.7 115.1 48.6 141.7 102.9 38.9 79.4 17.8 175.3-50.7 230.5-15.8 12.7-38.6 25.9-42.6 24.6-1.8-.6-35.4-52.2-36.7-56.3-.7-2.2 7.5-25.6 9.8-28 .8-.9 4.2.3 14.1 5.2 15.1 7.4 25.2 10.9 36.3 12.6 13.5 2.1 17.6 0 20.7-10.5 4.5-14.9 4-26.9-1.6-38.6-1.6-3.4-2.9-7.2-2.9-8.4 0-8.3-5.8-17.6-14.8-23.8-2.7-1.9-8.1-8.1-14.4-16.7-5.6-7.5-12.1-15.8-14.5-18.5-4.6-5.2-5-6.3-3-8.9 1.3-1.9 13.4-4.2 38-7.2 11.7-1.4 13.5-1.4 22.6.1l9.9 1.6 5.6-2.5 5.6-2.6v-18.5c0-12 .4-18.6 1-18.6.7 0 1-6.3.8-18.3l-.3-18.2-5 .3c-7.9.5-16.3 5-25.7 13.9-22.2 20.8-39.1 35.1-49.8 42.1-6.3 4.1-13.6 9.5-16.2 12l-4.7 4.5-6.3-3.1c-6.1-3.1-19.9-6.2-27.4-6.2-2.4 0-4.6-1.1-8.1-4-2.6-2.2-5.4-4.5-6-5.1-2.4-1.9-1.5-4.6 1.7-5.3 3.8-.7 7.6-4.7 8.4-8.7.3-1.8.6-10.3.6-19v-15.8l2.7-1.8c1.5-1 4.8-3.9 7.5-6.4 3.8-3.6 4.8-5.3 4.8-7.8 0-3.7-1.4-4.5-10.4-6.1-8.4-1.4-12.5-3.8-17.4-10.4-2.4-3.1-5.7-6.3-7.3-7.1-11.7-6.1-32.9-2.2-42.7 7.8-2.3 2.3-5.4 6.9-6.9 10.2-2.6 5.6-2.8 6.9-2.8 18.5 0 14.1 1.5 20.6 6.4 28.1l3 4.5-1.1 9.5c-1.2 9.7-1.1 9.5-7.9 15.6-.5.4-1.9 2-3 3.5-1.2 1.7-6.5 5-13.2 8.2-23 11.3-33.7 20.1-53.7 44.5-7.4 9.1-13.7 15.7-16.2 17.2-8.6 5.1-10.6 7.7-14.9 19.4-7.2 19.9-8.6 28.9-5.1 33.1 6.8 8.4 30.9 18.7 57.7 24.9 19.7 4.5 19.2 4.3 21 6.1 3.1 3.1 1.6 6.1-10.4 22.2-6.6 8.8-12.4 16.3-13.1 16.7-4.3 2.6-36.5-30.1-49.5-50.3-6.3-9.9-15.7-29.6-19.5-41.2-13.3-40.6-12.4-88.6 2.4-127 21.8-56.4 67.1-97.6 125.9-114.4 25.3-7.3 50.4-8.9 77.6-5zm-38.1 52c4.7 2.4 11.2 8.3 11.2 10.4 0 .4-1.5 1.2-3.2 1.5-10 2.1-38.6 14.7-46.6 20.5-5.1 3.6-5.7 3-5-5.8.5-7.1 3.5-13.5 9-19.1 9.9-9.9 23.7-13 34.6-7.5zm24.2 16.2l6.4 1.9-2.6 1.7c-4.6 3-12.1 5.4-20.6 6.6-8.5 1.1-20.2.5-20.2-1.2 0-1.2 14.3-7.8 20.5-9.4 6.9-1.7 9-1.7 16.5.4zm-34.6 17.8c1.2.5 1.3 1 .5 2.5-.9 1.7-.6 1.9 3.1 1.9 2.2 0 5.8-.9 8-2 4.9-2.5 8.3-2.5 13.7-.1l4.1 1.9.7 7.7c.9 8.9 0 20.2-1.7 24-1.8 4-5.8 5.5-14.2 5.6-9.9.1-16.1-2-22.3-7.5-1.3-1-2.6-1.7-2.9-1.4-1.3 1.4 3 6.8 12 15.4 11.9 11.4 12.1 12.2 3.9 21.9-8.1 9.5-10.1 10.8-17.7 11.3-5.4.4-6.7.1-8.4-1.6-4.5-4.5-6.5-25.2-3.8-40.2.9-5.2 1.5-6.6 3.1-6.9 4.2-.7 4.6-2.2 1.3-4.5-5.5-3.8-8.6-13.1-5.8-17.6.8-1.3 1.5-1.3 5.5.2 2.5 1 5.2 1.5 6 1.2.8-.3 2.2-2.7 3.1-5.2 1-2.6 2.2-5.3 2.7-6 1-1.3 6.4-1.6 9.1-.6zm163.9 10.9c-2.6 5-3.9 6.5-5.6 6.5-1.3 0-3.4.8-4.7 1.7-2.8 1.8-18.2 15.7-30.5 27.3-10.3 9.7-17 14.6-28.1 20.6-4.9 2.6-9.8 5.5-10.9 6.3-1.2.9-10.1 10.8-20 22.1-9.8 11.3-18.3 20.8-18.9 21.2-1.4 1-3.7-.3-3.4-1.9.4-2 26.7-32.3 36.3-41.8 5-5 11.6-10.2 17.6-13.9 9.1-5.5 19.5-14.3 48.5-41.1 11.6-10.8 15.7-13.5 20-13.5h3.2l-3.5 6.5zm-194.9 53.2c.3 2.1.6 5.5.6 7.6 0 7.1 6.5 32.2 9.9 38.5.5.9 7.6-7.2 21.1-24.3 13.2-16.6 20.9-25.5 21.9-25.3 1.2.2 1.7 1.8 1.9 5.8.3 4.9-1.3 16-2.3 16-.3 0-1.9-.9-3.7-2-1.8-1.1-4-2-5-2-1.8 0-13.4 12.7-12.5 13.6.3.4 2.8-.9 5.5-2.9 7.4-5.3 8.4-5.4 13.2-1.1 3.9 3.6 4.1 3.6 6 1.9 2.4-2.2 6-13.2 6-18.4 0-6.3.7-6.7 10.4-5.3 9.9 1.4 21.5 4.8 23.5 6.8 1.3 1.2 1.2 1.8-.9 4.6-3.2 4.3-26.2 31.1-27.5 32-.5.4-3.2.5-6 .2-4.3-.5-6.1-.1-12.7 2.9-8.1 3.7-9.7 5.9-6.3 8.7 2.1 1.7 1.9 2.7-1.4 6.9-5.3 6.7-10 16.4-9.4 19.3.7 3.4-.6 5.4-9.9 15.9l-7 8-2.2-1.9c-4.7-4.3-6.4-4.6-11.6-1.9-4.2 2.2-5.1 2.4-6.7 1.1-2.8-2.1-8.8-1.7-15.9 1.2-3.6 1.4-6.8 2.3-7.2 2-.3-.4-1.4-12.5-2.5-26.9-1-14.4-2.2-27.6-2.6-29.2l-.8-3-1.7 3.8c-1.6 3.6-2.4 7-4.7 19-1.2 6.3-5.5 12.1-10.1 13.2-2.1.5-3.4-.2-7.9-4.6-3.5-3.4-8.4-6.7-14.3-9.6-5-2.4-9.4-4.7-9.9-5.2-1.2-1.2 13.9-19.5 25.4-30.6 5.8-5.5 14.3-12.5 18.9-15.7 9.5-6.3 21.6-12.5 22.6-11.6.3.4 0 3.2-.6 6.4-1.6 7.8.3 20.4 3.1 20.4.8 0 10.9-13.3 10.9-14.4 0-1.3-2.9-.5-6.4 1.9l-3.6 2.4v-4.3c0-6.5 3.7-17.5 7-20.8 3.7-3.7 4.6-3.5 5.4.9zm20.5 23.9c.3.3-1.2 4-3.4 8.2l-3.9 7.7-2.3-7c-3.4-10.8-3.4-10.9 3.4-10.1 3.1.4 5.9.9 6.2 1.2zm100.6 5.6c7.7 8.6 18.5 24.3 18.5 27.1 0 .3-2.5 1.5-5.5 2.6-12.2 4.6-17.5 8.2-24.2 16.6l-3.2 4-4.4-2.3c-7.3-3.8-8.5-5.6-13.3-20.2-.5-1.6.3-2.7 15-20.9 5.4-6.6 10.4-12.1 11.1-12.1.7 0 3.4 2.4 6 5.2zm-56.3 24.4c4.3 2.5 9.4 6.4 11.3 8.7 6.6 7.7 9.4 20.2 6 26.7-2.2 4.3-.2 3.8 4.6-1.1 3-3 4.6-4 6.2-3.6 7.6 1.8 53.3 9.7 54.6 9.4.9-.1-2.2-1.6-6.9-3.1-4.7-1.6-8.9-3.2-9.3-3.6-1.5-1.4 6.5-3.3 13.3-3.2 6.9 0 14.1 2.1 17.3 5 4.4 3.9 7.7 14.5 7.7 24.5 0 6.1-2.4 16.1-4.7 19.6-1.5 2.3-1.9 2.3-11.2 1.9-15.7-.8-31.3-6.8-59.6-22.8-11.3-6.4-12.5-6.8-19.8-7.4-9.5-.7-14.7-2.8-21.3-8.8-2.8-2.4-7.1-5.9-9.7-7.7-5.5-4-6.1-5.3-3.9-8.1l1.8-2.2 6.2 4.6c3.4 2.5 6.4 4.6 6.7 4.6.8 0 .6-3-.2-3-.5-.1-3.3-2.3-6.2-5-5.2-4.5-5.4-5-4.3-7.4.6-1.4 1.5-2.6 2-2.6s3.3 1.8 6.2 4c8.9 6.7 11.5 4.8 2.8-2.1-6.4-5-7.2-6.3-5.8-8.9 1.5-2.8 2.3-2.6 9 2 3.2 2.2 6.3 4 6.9 4 2.9 0 1.4-2.3-4.4-6.6-3.5-2.7-6.6-5.7-6.8-6.6-.5-1.6 1.7-5.8 3-5.8.4 0 4.2 2.1 8.5 4.6zm21.7 9.9c-1.1 4.4-1.3 4.6-2.6 3-1.8-2.6-1.6-4.2.8-6.6 2.8-2.8 3.2-2 1.8 3.6zm64.7 3c4.3 2.5 8.4 8.9 8.4 13.2v2l-5.7-2c-6.9-2.3-15.2-1.9-23.4 1.2-7.4 2.8-16.6 2.4-17.7-.8-.7-2.2 10-11.7 15.9-13.9 7.9-3 17-2.9 22.5.3zM131 299.6c8 3.8 21 13 21 14.9 0 2.1-4.5 8-6.3 8.3-1 .2-3.6-1.6-6.4-4.5-6.8-6.9-14.7-10.1-30-12.3-1.1-.1.2-3.4 2.4-6 4.9-5.9 7.4-6 19.3-.4zm41 20.9c1.4 12.9.9 14.5-4.1 14.5-1.5 0-5.4-1.6-8.7-3.5l-6-3.6 4.9-7.4c4.8-7.2 9-11.5 11.4-11.5.9 0 1.7 3.7 2.5 11.5zm-50.9-6.9c8 2.4 12.6 5 13.3 7.6.4 1.6 4.7 4.8 14.9 11 7.8 4.8 15.4 8.9 16.7 9.3 1.7.4 7.1-1.2 17.2-5 8-3 15.3-5.2 16.2-4.9 2 .8 8.9 14.7 8.4 17.1-.2 1-1.2 1.9-2.3 2.1-1.5.2-2.8-1-5-4.8-1.6-2.7-3.5-5-4.2-5-1.6 0-.8 2.1 2.9 7.9 3.2 5.1 3.5 7.3 1.2 9.2-1.8 1.5-2.6.7-7.2-7.1-3.3-5.7-3.1-5.5-4.2-4.4-.6.6.3 2.8 2.5 6.1 3.7 5.5 4.3 8.1 2.3 10.1-2.1 2.1-3.6 1.3-6.9-3.3-3.1-4.3-4.9-5.6-4.9-3.5 0 .5 1.4 3 3.2 5.5 2.6 3.6 3 4.9 2.2 6.3-1.8 2.8-4.2 2.5-7.4-.7-3.3-3.2-6.5-4.1-24-6.5-18.3-2.5-35.5-9.2-48.7-18.9-3.3-2.5-6.4-5.5-6.8-6.7-1.1-3.4 2.3-16.6 5.2-20 2.9-3.6 6.9-3.9 15.4-1.4zm128.2 1.8c.4.9-10.4 14-28.5 34.8-40.4 46.3-38 43.8-41.2 43.8-1.5 0-2.6-.4-2.4-.9 1-2.6 68.6-79 69.9-79.1.9 0 1.9.6 2.2 1.4zm16.5 11.9c1.2 1.1 2.2 2.7 2.2 3.4 0 2.1-10.5 25.5-14.2 31.5-9.1 15.1-16.1 19.7-31 20.6-6.2.3-8.9.2-8.7-.6.4-1.2 38.5-48.5 43.8-54.4 3.4-3.9 4-3.9 7.9-.5zm-48.7 8.8c.9 1.7.8 2.3-.2 3-2 1.3-4.3 1.1-6.4-.5-1.6-1.2-1.7-1.6-.6-3 1.9-2.3 5.8-2 7.2.5z"/><path d="M262 170.8c-2 .6-5 3.3-5 4.4 0 1.4 5.8.9 7.4-.8.9-.8 1.6-1.9 1.6-2.4 0-1.1-2.2-1.8-4-1.2zM257.5 182.4c-1.9 1.4-1.6 1.5 3.3 1.6 3.9 0 5.3-.4 5-1.3-.7-1.8-6-2-8.3-.3zM256.5 189c-.4.6.8 1 2.9 1 1.9 0 3.8-.5 4.1-1 .4-.6-.8-1-2.9-1-1.9 0-3.8.4-4.1 1z"/></svg>