<svg xmlns="http://www.w3.org/2000/svg" version="1.1" x="0" y="0" width="517.4" height="520.3" viewBox="0 0 517.4 520.3" xml:space="preserve"><style type="text/css">
	.st0{fill:#FFffff;}
	.st1{opacity:0.6;fill-rule:evenodd;clip-rule:evenodd;}
</style><path class="st0" d="M495.5 291.5c1.4-10.7 21.9-20.3 21.9-31.4 0-11.1-20.5-20.7-21.9-31.4 -1.4-10.9 15.9-25.5 13.2-36 -2.8-10.6-25.1-14.6-29.3-24.6 -4.2-10.1 8.8-28.8 3.4-38.2 -5.4-9.5-28-7.4-34.6-16.1 -6.6-8.7 1.1-30.1-6.5-37.8 -7.7-7.7-28.9 0.1-37.5-6.6 -8.6-6.6-6.6-29.3-16-34.8 -9.4-5.4-27.9 7.6-38 3.4 -10-4.2-13.9-26.6-24.4-29.4C315.3 6 300.8 23.5 289.9 22c-10.6-1.4-20.2-22-31.2-22s-20.6 20.6-31.2 22c-10.9 1.4-25.4-16-35.8-13.2 -10.6 2.8-14.5 25.3-24.4 29.4 -10.1 4.2-28.6-8.9-38-3.4 -9.4 5.5-7.4 28.2-16 34.8 -8.6 6.7-29.9-1.1-37.5 6.6 -7.7 7.7 0.1 29.1-6.5 37.8 -6.6 8.6-29.1 6.6-34.6 16.1 -5.4 9.4 7.6 28.1 3.4 38.2 -4.1 10-26.4 14-29.3 24.6 -2.8 10.4 14.6 25 13.2 36C20.5 239.5 0 249.1 0 260.2c0 11.1 20.5 20.7 21.9 31.4 1.4 10.9-15.9 25.5-13.2 36 2.8 10.6 25.1 14.5 29.3 24.6 4.2 10.1-8.8 28.8-3.4 38.2 5.5 9.5 28 7.5 34.6 16.1 6.6 8.7-1.1 30.1 6.5 37.8 7.7 7.7 28.9-0.1 37.5 6.6 8.6 6.6 6.6 29.3 16 34.8 9.4 5.4 27.9-7.6 38-3.4 10 4.2 13.9 26.6 24.4 29.4 10.4 2.8 24.9-14.7 35.8-13.2 10.6 1.4 20.2 22 31.2 22s20.6-20.6 31.2-22c10.9-1.4 25.4 16 35.8 13.2 10.6-2.8 14.5-25.3 24.4-29.4 10.1-4.2 28.6 8.9 38 3.4 9.4-5.5 7.4-28.2 16-34.8 8.6-6.7 29.9 1.1 37.6-6.6 7.7-7.7-0.1-29.1 6.5-37.8 6.6-8.6 29.2-6.6 34.6-16.1 5.4-9.4-7.6-28.1-3.4-38.2 4.1-10 26.4-13.9 29.3-24.6C511.4 317.1 494.1 302.5 495.5 291.5zM258.7 483.4c-122.4 0-221.9-100.1-221.9-223.2S136.3 37 258.7 37c122.4 0 222 100.1 222 223.2S381.1 483.4 258.7 483.4zM82.4 239.5l-10.9-6.1L60.9 240l2.4-12.3 -9.5-8.1 12.4-1.5 4.7-11.6 5.2 11.4 12.4 0.9 -9.1 8.5L82.4 239.5zM457.8 239.5l-10.9-6.1 -10.6 6.6 2.4-12.3 -9.5-8.1 12.4-1.5 4.7-11.6 5.2 11.4 12.4 0.9 -9.1 8.5L457.8 239.5zM74.3 317.7c2.8-0.5 4.7-1.7 5.8-3.6 1.1-1.9 1.4-4.4 0.8-7.4l-1.4-7.8 -3.7 0.7 0.3 1.7 -9.4 1.7 -0.3-1.7 -3.7 0.7 1.4 7.8c0.6 3.1 1.7 5.3 3.5 6.7S71.6 318.2 74.3 317.7zM69.6 311.4c-1-0.4-1.6-1.2-1.8-2.3l-0.1-0.7 9.4-1.7 0.1 0.7c0.2 1.2-0.1 2.1-0.8 2.8 -0.8 0.7-1.8 1.2-3.2 1.4C71.8 311.9 70.6 311.8 69.6 311.4zM74.3 333l0.5 1.6 -3.6 1.2 -3-8.8 3.6-1.2 0.5 1.6 3-1 4.5-6.3 -0.4-1.1 3.6-1.2 2.9 8.7 -3.6 1.2 -0.3-0.9 -2.1 2.8 3.2 0.5 -0.5-1.5 3.6-1.2 2.2 6.5 -3.6 1.2 -0.6-1.8 -6.5-1.3L74.3 333zM96.6 358.6l-13.5 2.9 -2.7-5.2 5.8-5.3 -7.7 1.6 -2.6-5.1L86 338l-0.8-1.6 3.4-1.7 4.4 8.5 -3.4 1.7 -0.7-1.4 -4.6 4.3 10.1-2.1 2 3.9 -7.3 6.8 5.9-1.2 -0.7-1.3 3.4-1.7 3.3 6.3 -3.4 1.7L96.6 358.6zM100.4 380.5l8.7-10.8L103 361l-3.1 2.2 1.3 1.8 -9.5 3.1 -1-1.4 -3.1 2.2 4.4 6.2 3.1-2.2 -1.2-1.7 1.8-0.7 2.2 3.2 -1.2 1.4 -0.8-1.1 -3.1 2.2 5.5 7.9 3.1-2.2L100.4 380.5zM98.1 369.5l5.2-1.7 -3.6 4L98.1 369.5zM121.2 390.1l-10 8.8 -4.3-4.9 3.7-10 -4.2 3.7 1.1 1.3 -2.9 2.5 -4.5-5.1 2.9-2.5 1.1 1.3 7.1-6.3 -1.1-1.3 2.8-2.5 5.2 5.9 -4.1 10.7 4.8-4.2 -1.1-1.3 2.8-2.5 4.5 5.1 -2.8 2.5L121.2 390.1zM133.5 396.7l5 4.7 -2.6 2.8 -1.4-1.3 -6.3 1.9 -2.5 2.7 1.2 1.2 -2.6 2.8 -6.8-6.4 2.6-2.8 1.2 1.1 2.1-2.3 1-7.7 -0.9-0.8 2.6-2.8 6.7 6.2 -2.6 2.8 -0.7-0.7 -0.5 3.4 3.1-1 -1.1-1.1L133.5 396.7zM184 430.8l-1.8 3.3 -1.6-0.9 -9.6 9.9 -5.1-2.8 1.8-7.7 -5.5 5.6 -5.1-2.8 3.1-13.5 -1.5-0.8 1.8-3.3 8.4 4.6 -1.8 3.3 -1.4-0.8 -1.4 6.2 7.2-7.4 3.9 2.1 -2.2 9.7 4.2-4.3 -1.3-0.7 1.8-3.3L184 430.8zM192.4 444.2l-1.4 3.5 1.6 0.6 -1.4 3.6 -8.7-3.5 1.4-3.6 1.5 0.6 1.2-2.9 -1.8-7.5 -1.1-0.4 1.4-3.5 8.5 3.4 -1.4 3.5 -0.9-0.4 0.8 3.4 2.5-2.1 -1.5-0.6 1.4-3.5 6.4 2.5 -1.4 3.5 -1.8-0.7L192.4 444.2zM219 442.6l-1 3.6 -1.4-0.4 -4.4 3 0 0.1c1.1 0.3 1.9 0.8 2.5 1.3s0.7 1.3 0.4 2.3l-0.5 1.7c-0.1 0.2-0.1 0.4 0 0.6 0.1 0.2 0.2 0.3 0.4 0.4l1.2 0.3 -1 3.6 -3.8-1.1c-2.3-0.7-3.2-2.1-2.6-4.2l0.5-1.8c0.1-0.4 0.1-0.7 0-1.1 -0.1-0.4-0.3-0.6-0.7-0.7l-1.5-0.4 -0.8 2.9 1.6 0.5 -1 3.6 -8.6-2.5 1-3.6 1.6 0.5 2.6-9.2 -1.6-0.5 1-3.6 8.2 2.4 -1 3.6 -1.3-0.4 -1.1 3.7 3.8-3 1-3.6L219 442.6zM230.5 454.5l3 0.6 -1.4 7.5 -13.4-2.5 0.7-3.8 1.5 0.3 0.3-1.7 -0.9 0.3 -0.7-2.1 2.1-0.7 1-5.4 -1.6-0.3 0.7-3.7 9.2 1.7 -0.7 3.7 -1.6-0.3 -0.4 1.9 1.4-0.5 0.7 2.1 -2.6 0.9 -1 5.2 2 0.4L230.5 454.5zM249.6 447.1l-10.6-0.9 -0.3 3.8 2.2 0.2 -3.7 9.2 -1.7-0.1 -0.3 3.8 7.5 0.6 0.3-3.8 -2-0.2 0.6-1.8 3.9 0.3 0.3 1.9 -1.4-0.1 -0.3 3.8 9.6 0.8 0.3-3.8 -1.7-0.1L249.6 447.1zM242.4 455.4l2-5.1 0.8 5.3L242.4 455.4zM271 449.4c-1.7-1.4-4.1-2.1-7.2-2l-7.9 0.2 0.1 3.8 1.7 0 0.2 9.5 -1.7 0 0.1 3.8 7.9-0.2c3.1-0.1 5.5-0.9 7.1-2.4 1.6-1.5 2.4-3.6 2.3-6.4C273.6 452.9 272.7 450.8 271 449.4zM266.7 459.3c-0.5 0.9-1.4 1.4-2.6 1.4l-0.7 0 -0.2-9.5 0.7 0c1.2 0 2.1 0.4 2.7 1.3 0.6 0.9 0.9 2 0.9 3.4C267.5 457.2 267.3 458.3 266.7 459.3zM292.1 454.6l0.9 7.4 -15 1.9 -0.5-3.7 6.1-10.4 -3.4 0.4 -0.4 3.4 -3.1 0.4 -0.9-7.1 14.9-1.8 0.4 3.5 -6 10.5 3.3-0.4 0.7-3.7L292.1 454.6zM305 455.7l0.8 3.7 -8.8 1.8 -0.8-3.7 1.7-0.3 -1.9-9.3 -1.7 0.3 -0.8-3.7 8.8-1.8 0.8 3.7 -1.7 0.3 1.9 9.3L305 455.7zM321.4 441.3l3.8 12.8 -6.2 1.8 -7.5-7.6 1.6 5.4 1.6-0.5 1.1 3.7 -6.6 1.9 -1.1-3.7 1.7-0.5 -2.7-9.1 -1.6 0.5 -1.1-3.6 7.6-2.2 8 8.2 -1.8-6.1 -1.6 0.5 -1.1-3.6 6.6-1.9 1.1 3.6L321.4 441.3zM340.5 443.9l1.5 3.6 -8.6 3.5 -1.5-3.6 1.5-0.6 -1.2-2.9 -6.6-4.1 -1.1 0.5 -1.4-3.5 8.5-3.5 1.4 3.5 -0.9 0.4 2.9 1.9 0.3-3.2 -1.4 0.6 -1.4-3.5 6.3-2.6 1.4 3.5 -1.8 0.7 -0.9 6.6 1.4 3.4L340.5 443.9zM381.3 420.1l2.2 3.2 -7.8 5.6 -2.2-3.2 1.4-1 -5.5-7.7 -1.2 0.9 1.3 2.7 -2.5 1.7 -3.9-5.5 13.1-9.3 3.9 5.5 -2.5 1.7 -2.1-2.1 -1.3 0.9 5.5 7.7L381.3 420.1zM398.9 405.6l-11.6-7.6 -8 7 2.5 2.9 1.7-1.5 4 9.1 -1.3 1.1 2.5 2.9 5.7-4.9 -2.5-2.9 -1.5 1.3 -0.8-1.7 2.9-2.5 1.5 1.1 -1 0.9 2.5 2.9 7.3-6.3 -2.5-2.9L398.9 405.6zM388.2 409l-2.2-5 4.4 3.1L388.2 409zM407.2 397.1l-1.6-1.6c0.4-0.3 0.8-0.7 1.2-1.1 1.6-1.7 2.5-3.3 2.6-4.9s-0.6-3-2.2-4.5c-1.4-1.3-2.8-1.7-4.2-1.2 -1.5 0.5-2.9 1.5-4.3 3l-6.3 6.6 2.8 2.6 1.1-1.2 6.9 6.5 -1.2 1.2 2.8 2.7 6.4-6.7 -2.8-2.7L407.2 397.1zM403.4 392.9l-0.3 0.3 -2.8-2.6 0.6-0.7c0.4-0.4 0.8-0.7 1.3-0.7 0.5-0.1 0.9 0.1 1.3 0.5C404.5 390.6 404.5 391.7 403.4 392.9zM421.1 381.1l2.9 2.4 -5.6 6.9 -2.9-2.4 1.1-1.3 -7.4-6 -1.1 1.3 -2.9-2.4 5.6-6.9 2.9 2.4 -1.1 1.3 7.4 6L421.1 381.1zM429.8 365.6l3.8 2.6c-0.1 1-0.3 2-0.7 3 -0.4 0.9-0.9 1.9-1.6 2.8 -0.9 1.3-2 2.3-3.3 3s-2.7 1-4.3 0.9c-1.6-0.1-3.1-0.7-4.7-1.8 -1.4-0.9-2.4-2-3.2-3.3 -0.8-1.2-1.1-2.6-1.1-3.9 0-1.4 0.5-2.8 1.4-4.1 0.5-0.7 1.1-1.2 1.8-1.5s1.4-0.4 2-0.3l-1.2-1.3 1.9-2.8 5.8 4 -2 2.8 -0.3-0.2c-0.7-0.5-1.5-0.8-2.2-0.8s-1.3 0.4-1.8 1c-0.3 0.5-0.4 1-0.3 1.6 0.1 0.6 0.3 1.2 0.8 1.8 0.4 0.6 0.9 1.1 1.5 1.5 1.2 0.8 2.3 1.2 3.4 1 1.1-0.1 2-0.7 2.7-1.7 0.5-0.7 0.8-1.5 1-2.3 0.2-0.8 0.3-1.5 0.3-2.1L429.8 365.6zM437.3 349.2l6.4 3.6 -7 12.6 -3.3-1.8 1-1.8 -8.3-4.7 -1 1.8 -3.3-1.8 7-12.6 5.9 3.3 -1.3 2.4 -3.1-0.6 -1.5 2.7 2.4 1.4 1.3-2.4 2.5 1.4 -1.3 2.4 3.4 1.9 1.5-2.7 -2.5-2.6L437.3 349.2zM447.7 333.9l-1.3-0.5c-0.8-0.4-1.6-0.4-2.4-0.3 -0.7 0.2-1.4 0.7-1.9 1.6 0.3-1.1 0.2-2.1-0.1-2.9s-1-1.4-2-1.9c-1.5-0.6-2.8-0.7-3.8-0.2 -1 0.5-1.8 1.6-2.5 3.2l-4.3 10.1 3.5 1.5 0.7-1.6 8.8 3.7 -0.7 1.6 3.5 1.5 3.5-8.2 -3.5-1.5 -0.7 1.6 -3.3-1.4 0.5-1.2c0.3-0.7 0.7-1.1 1.2-1.2 0.5-0.1 1.2 0 2 0.4 1.4 0.6 2.5 0.9 3.2 0.9s1.2-0.2 1.5-0.6c0.3-0.4 0.7-1.1 1.1-2.1l1.3-3.2 -3.5-1.5L447.7 333.9zM439.6 337.8l-0.6 1.4 -3.3-1.4 0.7-1.6c0.2-0.6 0.6-1 1-1.2 0.4-0.2 0.9-0.3 1.3-0.1 0.6 0.3 1 0.6 1.1 1.1C440 336.5 440 337.1 439.6 337.8zM454.3 311.9l3.7 1 -1 3.8c-0.6 2.3-2 3.2-4.1 2.6l-1.8-0.5c-0.4-0.1-0.7-0.1-1.1 0.1s-0.6 0.4-0.7 0.7l-0.4 1.5 2.9 0.8 0.5-1.7 3.7 1 -2.3 8.6 -3.7-1 0.5-1.7 -9.2-2.5 -0.5 1.7 -3.7-1 2.3-8.3 3.7 1 -0.4 1.3 3.8 1 -3-3.8 -3.7-1 1.8-6.5 3.7 1 -0.4 1.4 3.1 4.4 0.1 0c0.3-1.1 0.7-1.9 1.3-2.5 0.6-0.5 1.3-0.7 2.3-0.4l1.7 0.5c0.2 0.1 0.4 0 0.6 0 0.2-0.1 0.3-0.2 0.4-0.4L454.3 311.9zM459.8 299.9l-1.3 8.8 -3.7-0.5 0.2-1.7 -9.4-1.4 -0.2 1.7 -3.7-0.5 1.3-8.8 3.7 0.5 -0.2 1.7 9.4 1.4 0.2-1.7L459.8 299.9zM143.3 421.2l-1.2-2.9 -3.1-0.4 2.4-2 -0.6-3.1 2.7 1.7 2.8-1.5 -0.8 3.1 2.3 2.2 -3.2 0.2L143.3 421.2zM359.9 433.9l-3.1-0.3 -1.8 2.6 -0.7-3.1 -3-0.9 2.7-1.6 -0.1-3.2 2.4 2.1 3-1 -1.3 2.9L359.9 433.9zM123.2 135.6l7.9 5.8c-0.2 2.2-0.8 4.3-1.8 6.3 -0.9 2-2.1 4-3.6 5.9 -2 2.7-4.4 4.8-7.2 6.2 -2.8 1.4-5.9 1.9-9.2 1.6 -3.3-0.4-6.6-1.8-10-4.3 -2.8-2.1-5-4.5-6.5-7.2 -1.5-2.7-2.2-5.5-2.1-8.5 0.1-3 1.2-5.8 3.3-8.6 1.1-1.4 2.3-2.5 3.9-3.1 1.5-0.6 3-0.8 4.4-0.6l-2.4-3 4.3-5.7 12.1 8.9 -4.4 5.9 -0.6-0.4c-1.6-1.2-3.1-1.7-4.6-1.8 -1.5 0-2.8 0.7-3.9 2.1 -0.7 1-1 2.1-0.8 3.4 0.1 1.3 0.6 2.7 1.5 4 0.8 1.3 1.9 2.5 3.2 3.4 2.5 1.8 4.9 2.6 7.2 2.4 2.3-0.2 4.3-1.4 5.8-3.5 1.1-1.5 1.9-3.1 2.4-4.8 0.5-1.7 0.7-3.1 0.7-4.4L123.2 135.6zM152.1 105.4l2.7 7.6 -5.6 4.3 -0.4-25.9 -4.6-5.9L118.9 105l9.3 12 5.2-4.1 -2.9-6.8 5.7-4.4 0.2 25.7 4.9 6.4 25.6-19.8 -9.7-12.6L152.1 105.4zM196.4 92.2l-2.8-7.4 2.3-14 3.9-1.5 -2.9-7.6 -13.7 5.2 2.9 7.6 3.1-1.2 -0.9 6.9 -6.1-4.2 1.9-0.7 -2.9-7.6L163 74.6l2.9 7.6 2.4-0.9 13.8 9.2 2.4 6.3 -3.3 1.3 2.9 7.7 18.6-7.1 -2.9-7.7L196.4 92.2zM238.3 47.4l-3.8-5.9 -10.8 8.6 2.5 3.2L238.3 47.4zM245.2 72.8c-1.3-1.6-3-2.7-5-3.4 -2-0.7-4.4-1.2-7.2-1.5 -1.6-0.2-2.8-0.4-3.7-0.7 -0.9-0.3-1.3-0.8-1.4-1.5 -0.1-0.7 0.2-1.2 0.7-1.6 0.5-0.4 1.3-0.7 2.4-0.8 1.4-0.2 2.5 0 3.3 0.4 0.9 0.4 1.7 1.3 2.5 2.6l7-0.8 -1.3-10.9 -6.5 0.8 -0.9 2.3c-1.9-1.7-4.4-2.3-7.3-2 -2.4 0.3-4.4 1-6.1 2.1 -1.7 1.1-2.9 2.6-3.6 4.4 -0.8 1.8-1 3.8-0.7 6 0.3 2.9 1.2 5.1 2.5 6.7 1.4 1.6 3 2.8 5 3.5 2 0.7 4.5 1.3 7.5 1.8 1.2 0.2 2.1 0.4 2.8 0.7 0.7 0.3 1.1 0.8 1.2 1.6 0.1 0.6-0.2 1.1-0.8 1.5 -0.6 0.4-1.3 0.7-2.2 0.8 -1.4 0.2-2.7 0-3.7-0.4 -1-0.4-1.9-1.2-2.5-2.5l-7.3 0.9 1.3 11.1 7.4-0.9 0.5-2.2c1.4 0.8 2.7 1.4 3.8 1.7 1.2 0.3 2.7 0.3 4.5 0.1 2.3-0.3 4.2-1 5.9-2.3 1.6-1.3 2.8-2.9 3.6-4.8 0.7-1.9 1-4.1 0.7-6.3C247.4 76.5 246.6 74.4 245.2 72.8zM287.3 59.5c-0.5-1.3-1.5-2.5-2.8-3.4 -1.3-0.9-2.9-1.5-4.7-1.6 -3.5-0.3-6.5 0.3-9.1 1.8 -2.6 1.5-4.6 3.6-6.1 6.3 -1.5 2.7-2.4 5.8-2.6 9.3 -0.3 4.2 0.2 7.7 1.7 10.7 1.4 3 3.5 5.3 6.2 6.9 2.7 1.6 5.7 2.6 9.1 2.9 2.4 0.2 4.8 0.2 6.9-0.1s4.3-0.9 6.3-1.9l0.8-9.7 -0.5-0.5c-1.1 0.6-2.5 1.2-4.1 1.7 -1.7 0.5-3.4 0.7-5.3 0.5 -2.7-0.2-4.7-1.2-6.1-3.1 -1.4-1.9-2-4.3-1.7-7.4 0.1-1.6 0.5-3.1 1.2-4.5 0.7-1.4 1.5-2.5 2.6-3.4 1.1-0.8 2.2-1.2 3.4-1.1 1.7 0.1 3 0.9 3.8 2.2 0.8 1.3 1.1 2.9 1 4.9l-0.1 0.7 7.3 0.6 1.2-14.9 -7.1-0.6L287.3 59.5zM313.2 68.4l3.5 1L311.1 89l-3.5-1 -2.3 7.8 18.3 5.3 2.3-7.8 -3.5-1 5.7-19.5 3.5 1 2.3-7.8 -18.3-5.3L313.2 68.4zM389.8 105.9l3.7 2.4 4.5-6.7 -15.3-10.2 -15.6 10.8 3.8-18.6 -16.4-10.9 -4.5 6.7 3.7 2.4 -11.3 17 -3.7-2.4 -4.5 6.7 12.8 8.5 4.5-6.7 -3.1-2 7.8-11.8L352 115l5.5 3.7 18.7-13.6 -7.5 11.4 -2.5-1.6 -4.5 6.7 15.9 10.6 4.5-6.7 -3.7-2.4L389.8 105.9zM425.4 135.4l-6.5 4.8 2 2.7 -6.9 0.9 2.5-7 1.2 1.7 6.5-4.8 -11.5-15.8 -6.5 4.8 1.5 2.1 -5.2 15.7 -5.4 4 -2.1-2.8 -6.6 4.9 11.8 16.1 6.6-4.9 -2.1-2.9 6.4-4.7 14.1-1.5 2.4 3.3 6.5-4.8L425.4 135.4zM321.2 272.4c1.2 2.2 1.3 3-1.5 3.8 -8.2 2.4-15.5 6.1-19.9 14 -0.3 0.5-0.6 1-1.3 1.1 -2.1 0.2-8.9-4.4-9.8-6.4 -1.4-3.2-1.2-7-4-9.6 0 0 0 0 0 0 1.6-3.7 4.7-6.4 7.1-9.5 3.5-4.5 7.2-8.8 10.7-13.3 1.1-1.5 1.9-1.7 3.3-0.3C311.9 258.3 317.1 264.9 321.2 272.4zM243.4 160.7c-3.8 2.4-8.3 3.8-11.4 7.3 -4.1 4.5-5.7 9.9-5.3 15.9 10.4-5.6 21.2-10.3 33.1-13.3C255.2 165.2 250.7 160.7 243.4 160.7zM284.7 275.4C284.8 275.4 284.8 275.3 284.7 275.4c0.1-0.1 0-0.1 0-0.1C284.7 275.3 284.7 275.3 284.7 275.4zM302.8 291.1c-0.4 0.7-1.3 1.7 0.1 1.9 3.2 0.4 6.3 2.4 9.8 0.9 7.9-3.5 15.8-5 23.9-0.5 0-6.5-4-11.6-9.7-12.9C318.3 278.7 307.4 283.4 302.8 291.1zM224.7 313.7c-1.5 0.2-3.2 0.7-3.2 2.2 0 2.1 2.1 1.8 4.1 2 0.8 0 2.2-0.1 2-1.7C227.5 314.7 226.7 313.4 224.7 313.7zM142.3 312.1c-0.3 2.2 0.5 3.7 2.4 5.2 13.1 10.6 28.4 15.2 44.8 16.6 4.6 0.4 8.8 0.9 11.8 4.9 0.9 1.2 2.2 1.6 3.4 0.5 1.3-1.1 1.5-2.4 0.5-3.8 -1-1.4-2-2.7-2.9-4.1 -0.6-0.8-1.6-1.6-0.3-3.2 1.4 1.9 2.7 3.7 4.1 5.4 0.9 1.1 1.4 3.3 3.5 1.5 1.6-1.4 2.5-2.8 0.8-4.9 -1.3-1.6-2.3-3.4-3.4-5.1 -0.5-0.8-1.8-1.9-0.4-2.7 1.1-0.7 1.5 0.9 1.9 1.6 1.2 1.9 2.3 4 3.6 5.9 0.5 0.8 0.7 2.5 2.2 1.5 1.2-0.8 2.4-1.8 1.6-3.5 -0.5-1.1-1.2-2.1-1.7-3.2 -0.9-2.1-3.1-3.7-2.5-6.7 2.4 1.6 3 4.2 4.6 6.2 0.8 1 1.2 3.1 3.1 1.9 1.7-1.1 1.7-2.7 0.7-4.4 -1.3-2.2-2.6-4.4-3.5-6.7 -1.2-3.3-3.2-3.5-6.1-2.3 -5.4 2.2-10.9 4.1-16.2 6.2 -2.7 1.1-4.9 0.9-7.4-0.8 -6-3.9-12.1-7.5-18.2-11.2 -0.5-0.3-1.4-0.2-1.4-0.9 0.1-3.9-3.4-4.6-5.8-5.5C147.5 294.9 144.6 296.8 142.3 312.1zM150.6 289.3c-0.8 1-1.9 2.2-1.5 3.5 0.4 1.6 2.2 1 3.4 1.2 8.4 1.2 16 3.6 20.9 11.3 0.4 0.6 0.8 1.1 1.7 0.8 1.8-0.4 5.1-4.4 5-7.2 0-0.2-1-0.6-1.7-1.3 -5.4-4.8-11.4-8.4-18.2-10.9C155.9 285 153.5 285.6 150.6 289.3zM260.6 307.2c-1.2-0.8-1.8-0.7-2.6 0.4 -11.1 13.7-22.2 27.4-33.6 41.6 16.1 0.8 22.1-2.3 29.9-15.5 3.6-6 5.8-12.8 8.9-19C265.4 310.3 263.3 309.1 260.6 307.2zM270.2 175.1c-7.7-3.2-14.8-1.3-21.8 2.2C255.9 178.8 263.2 178.1 270.2 175.1zM223.6 195.7c0.9-2.4 2.4-1.9 4-0.9 4.3 2.5 5.5 2 7.2-2.8 2.1-6.1 2.1-6.1 9.7-4.3 -0.5 0.9-1 1.8-1.5 2.9 3 0.7 5.6 0.5 7.8-1.1 4.7-3.3 8.9-1.6 13.1 0.9 0.6 0.4 0.6 1 0.7 1.6 0.8 6.6 1.2 13.2-0.2 19.8 -0.7 3.2-2.6 4.8-5.9 5.4 -9.2 1.7-17.2-0.4-23.8-7.3 0.7 3.9 3 6.5 5.6 9 2.6 2.5 5.5 4.7 8 7.3 3.7 3.9 3.6 5.8 0.2 9.9 -1.6 1.9-3.3 3.9-4.9 5.8 -3.6 4.2-9.7 5.8-14.8 3.9 -1-0.4-1.5-1-1.9-2 -4.3-10.6-3.2-21.3-1.1-32 0.1-0.6 0.1-1.1 1-0.8 2.1 0.8 3-0.6 3.9-2.2C225.9 208 221.9 200.5 223.6 195.7zM261.3 208.5c0.1-0.6-0.3-0.9-0.9-0.8 -1.8 0.3-3.9-0.3-5.6 2 2.2-0.1 3.8-0.2 5.5-0.3C260.9 209.4 261.3 209.1 261.3 208.5zM255.7 199.4c3.4 0.2 6.5 0.5 7-3.8C259.3 194.6 257.3 196.3 255.7 199.4zM254.8 205c2.6 0.2 4.6 0.9 6.7 0.1 0.6-0.2 1.6 0 1.4-1 -0.1-1-0.8-1.1-1.8-1.2C258.9 202.7 257 203.1 254.8 205zM171.6 275.6c-1.4 1.7-1.7 3.2-0.6 5.2 1.2 2.5 3.2 4.6 3.5 7.4h0c2.4 2 5.1 3.8 6.9 6.4 0.9 1.3 1.9 1.2 3.1 0.7 4.1-1.6 7.2-6 7.5-10.5 0.3-5.6 1.4-11.1 4.8-16.4 0.2 1 0.2 1.4 0.3 1.7 1 13.1 2 26.3 2.9 39.4 0.2 2.5 0.5 3.6 3.2 2 3.1-1.8 6.6-3 10.3-3.1 1.2 0 2.8-0.3 3.4 0.6 1.6 2.6 3 1.2 4.6 0.1 3.8-2.6 6-2.4 9 1.2 1.3 1.5 1.9 1.3 3-0.1 3.1-3.7 6.3-7.4 9.4-11 1.2-1.4 2.4-2.5 1.5-4.9 -0.7-2 0.5-4.2 1.7-6.1 2.1-3.3 3.8-6.8 6.5-9.7 0.9-1 1.7-2.1-0.3-3.4 -2.2-1.5-1.7-3.5 0.8-4.6 2.9-1.3 5.8-2.3 8.7-3.7 1.8-0.9 3.5-0.9 5.1 0.1 1.9 1.2 3 0.8 4.5-0.9 6.3-7.5 12.6-15 19.1-22.3 2.2-2.5 1.4-3.7-1-4.6 -6.5-2.3-13.2-3.9-20.1-4.5 -2-0.2-2.7 0.4-2.7 2.6 -0.1 4.9-1 9.6-3.5 13.9 -1.5 2.5-2.7 3.5-5.1 0.6 -3.4-3.9-4.5-3.8-8.8-0.6 -1.6 1.1-3.2 2.2-4.8 3.3 -0.3-0.2-0.5-0.4-0.8-0.6 2-2.4 4.1-4.8 6-7.3 2.1-2.9 4.4-3 7.2-1.1 0.8 0.5 1.6 1.1 2.7 1.8 1.4-4.6 2.6-9 1.9-13.6 -0.2-1.1-0.5-2.4-1.5-2.8 -1.3-0.5-1.7 1-2.4 1.8 -8.3 10.4-16.6 20.8-24.9 31.2 -1.1 1.4-2.2 2.7-3.5 4.4 -0.5-1-0.7-1.5-0.9-2 -4.1-10.5-7.1-21.3-7.2-32.7 0-2.9-1.2-2.7-3-1.5 -0.6 0.4-1.2 0.9-1.6 1.5 -3.5 5.4-4.9 11.3-4.1 18 4-3.9 4-3.9 7.3-3.4 -0.6 0.9-1.1 1.6-1.7 2.4 -1.8 2.4-3.7 4.8-5.5 7.2 -1.4 1.9-1.9 0.3-2.4-0.7 -1.7-3.4-1.2-7.1-1.2-10.7C194.2 253.3 181.8 263 171.6 275.6zM227.6 250.3c-0.8 0-0.6 0.9-0.4 1.4 0 0.1 0.1 0.2 0.1 0.3 0.9 3.2 1.9 6.4 3.1 10.4 2-3.8 3.7-6.8 5.4-9.9 0.3-0.6 0.9-1.7 0.1-1.8C233.2 250.4 230.4 250.3 227.6 250.3zM282.5 283.6c0.9-2.8 1.9-5.4 2.2-8.2C280.3 278.8 280 279.7 282.5 283.6zM367.7 235.2C367.7 235.2 367.7 235.2 367.7 235.2c0 0.5 0.1 0.9 0.1 1.3C367.8 236 367.7 235.6 367.7 235.2zM367.7 223c0-4 0-8 0-12l0 0C367.7 215 367.7 219 367.7 223zM368.8 209.1c0 0.6 0 1.2 0 1.8l0 0C368.8 210.3 368.8 209.7 368.8 209.1zM337 331.9c1.6-0.1 2.9-0.3 3.7-2.1 2.7-6.4 4-13 2.6-19.8 -1-4.9-2.2-10.6-6.5-12.9 -6.7-3.7-14.3-3.6-22.3-0.6 5.3 1.8 9.8 3.4 14.4 5 -0.8 0.6-1.4 0.6-2 0.5 -12.6-2.3-25.2-4.5-37.8-6.9 -2.4-0.5-4.1-0.4-5.3 2.2 -0.7 1.6-1.8 3.2-4.5 3.6 0.5-1.2 0.7-2.1 1.1-2.7 2-3.1 1.4-6 0.5-9.5 -2-7.1-5.8-12.2-12.4-15.3 -1.4-0.7-2.7-1.6-4-2.5 -1.7-1.3-3.3-1.8-4.6 0.2 -1.3 2-0.6 3.6 1.2 4.9 2 1.4 3.9 2.9 5.8 4.4 0.9 0.7 2.6 1.4 1.7 2.7 -1 1.6-2.1-0.2-3-0.7 -2.2-1.3-4.3-2.8-6.3-4.3 -2.2-1.7-3-0.4-3.6 1.4 -0.5 1.4 0.1 2.5 1.4 3.4 2.1 1.5 4 3.1 6.1 4.6 0.8 0.6 1 1.4 0.5 2.2 -0.8 1.2-1.5 0.2-2.1-0.2 -1.9-1.3-3.6-2.8-5.5-4.1 -1-0.7-2-2.5-3.5-0.4 -1.1 1.6-1.2 3 0.5 4.4 2 1.6 4 3.2 5.8 4.9 0.7 0.6 2.5 1.1 1.4 2.4 -1 1.1-1.9-0.5-2.6-1 -1.6-1.1-3.1-2.4-4.6-3.5 -1.2-0.9-2.3-2.4-3.8-0.3 -1.3 1.7-1 2.9 0.7 4.2 3.4 2.5 6.9 5 9.9 7.9 4.8 4.6 10.5 6.3 16.9 5.8 2.3-0.2 4.1 0.5 6.1 1.7 10.9 6.8 22 13.1 34.2 17.3C323.6 330.8 330.1 332.3 337 331.9zM420.2 260.2c0 89.7-72.3 162.4-161.5 162.4 -89.2 0-161.5-72.7-161.5-162.4 0-89.7 72.3-162.4 161.5-162.4C347.9 97.8 420.2 170.5 420.2 260.2zM409.7 261c0.1-84.3-67.1-151.9-150.9-151.9 -83.3 0-150.9 67.6-151 150.8 -0.1 82.9 67.5 150.9 150.1 151C341.6 411 409.6 343.9 409.7 261zM330.7 276.8c-1.8-1-3.1-2.2-4.2-3.8 -5.7-8.3-11.5-16.5-18.4-23.8 -0.5-0.6-0.7-1.3-0.7-2 0 0.7 0.2 1.5 0.7 2 6.9 7.4 12.7 15.5 18.4 23.8C327.7 274.6 329 275.8 330.7 276.8c6.5 3.7 10.4 9.1 11.2 16.3C341.1 285.9 337.2 280.5 330.7 276.8zM366.4 184.2c2.3-0.3 2.6 0.4 2.6 2.4 0 0 0 0 0-0.1C369 184.6 368.7 184 366.4 184.2zM368.8 198.8c0 0.7 0 1.4 0 2C368.8 200.2 368.8 199.5 368.8 198.8zM368.8 198.6c0-3.9 0-7.9 0-11.8C368.8 190.7 368.8 194.7 368.8 198.6zM369 198.8c0-0.1 0-0.1 0-0.2C369 198.7 369 198.7 369 198.8zM311 243.5c10.6-1.6 21.3-3.4 32-4.4 4.5-0.4 9.1 0.8 13.6 1.7 4 0.8 7-1.4 10.2-2.8 0.8-0.3 0.9-1 0.9-1.7 0 0.7-0.1 1.3-0.9 1.6 -3.3 1.3-6.2 3.6-10.2 2.8 -4.5-0.9-9.2-2.1-13.6-1.7C332.3 240.1 321.7 241.9 311 243.5c-2.1 0.3-3.4 2-3.5 3.6C307.6 245.5 309 243.8 311 243.5zM368.8 200.8c0 2.8 0 5.5 0 8.2C368.8 206.3 368.8 203.6 368.8 200.8zM166.7 284.2c2.6 1.3 5.2 2.7 7.8 4.1l0 0C171.9 286.9 169.3 285.5 166.7 284.2z"/><path class="st0 st1" d="M368.8 210.9c0-8.1 0-16.2 0-24.3 0-2-0.3-2.6-2.6-2.3 -7 0.8-12.6 3.4-17.8 8.5 -8.9 8.8-18.5 17-27.9 25.4 -3.9 3.5-8.5 5.9-12.9 8.8 -3.9 2.6-8.1 4.9-10.8 8.9 -0.7 1.1-1.5 1.8-3 0.8 -7-4.9-15.1-5.6-23.2-6.2 -2.3-0.2-4.2-0.6-5.5-2.7 -0.9-1.4-2.5-2.3-3.9-3.1 -1.2-0.7-2.1-2-2-3.3 0.1-1.4 1.7-1 2.6-1.3 3.9-1.3 5.8-4.2 6.2-8.1 0.6-6.6 0.1-13.3-0.1-19.9 -0.1-2.7 0.3-4.5 3-5.8 3-1.5 5.7-3.7 7.5-6.7 2.1-3.4 1.1-5.5-2.7-6.3 -0.7-0.2-1.4-0.2-2.2-0.3 -5.9-0.9-11.4-1.8-14.8-8.3 -2.7-5.1-8.5-6.9-14.4-7 -18.9-0.3-30.3 12-28.9 30.9 0.5 7.3 1.8 14.1 6.5 20 0.8 1 0.8 1.9 0.6 3 -0.4 2.1-0.7 4.3-0.8 6.5 -0.2 3.9-0.5 7.8-5.1 9.2 -0.4 0.1-0.9 0.6-1.1 1 -2.4 5.4-7.8 6.7-12.5 9 -12.7 6.2-23.8 14.3-32.5 25.5 -3.2 4.1-6.6 8-9.9 12.1 -2.7 3.2-5.1 6.6-9.4 8.2 -3 1.1-5.4 3.7-6.2 6.8 -1.8 6.6-5.2 12.7-6.5 19.6 -1.5 7.8-0.8 9.6 5.8 13.8 13 8.3 27.5 12.2 42.4 15.2 2.3 0.5 4.5 1 6.7 1.5 4.1 1 5.5 4.6 3 7.9 -5.2 6.9-10.4 13.6-15.5 20.6 -1.6 2.2-2.7 2.3-4.8 0.6 -29.6-23.1-47.8-53-52.7-90.3 -9.1-67.7 31.1-129.8 96.4-149.7 76.6-23.3 158.5 26.5 173 105.3 11.4 62-19.3 122.4-75.8 149.4 -3 1.4-4.4 1.2-6.2-1.7 -7.5-12.1-15.3-24.1-23.1-36 -1.5-2.3-1.7-4.2-0.6-6.7 2.1-4.9 4-9.9 5.7-14.9 0.8-2.4 1.8-2.5 3.9-1.3 10.1 5.5 20.4 10.6 31.8 12.7 13 2.4 15.2 0.9 18.1-11.9 2-9 1.3-17.5-3.6-25.5 -0.7-1.2-1-2.4-1-3.8 -0.4-8-4.4-13.9-11.3-17.8 -1.8-1-3.1-2.2-4.2-3.8 -5.7-8.3-11.5-16.5-18.4-23.8 -1.7-1.8-0.1-5.2 2.8-5.6 10.6-1.6 21.3-3.4 32-4.4 4.5-0.4 9.1 0.8 13.6 1.7 4 0.8 7-1.4 10.2-2.8 1.3-0.5 0.8-1.9 0.8-2.9 0-8.1 0-16.2 0-24.3C368.1 210.9 368.4 210.9 368.8 210.9zM355.2 193.6c-6.3 6-12.7 11.9-19.3 17.6 -8 7-15.1 15.1-24.7 20 -6.1 3.2-11 7.7-15.4 13 -6.9 8.4-14.3 16.4-21.4 24.7 -0.7 0.8-2.2 1.5-0.5 2.9 1.3 1.1 2.3 1 3.3-0.4 0.3-0.5 0.8-0.9 1.2-1.4 8-9.2 16.1-18.4 24-27.6 1.3-1.5 2.7-2.6 4.5-3.5 8.1-3.8 15.8-8 22.3-14.5 7.3-7.2 15.1-13.9 22.8-20.8 1.9-1.8 3.6-3.9 6.8-3.4 0.8 0.1 1.3-0.5 1.7-1.2 1.4-2.8 2.8-5.5 4.6-8.9C360.9 190.3 357.9 191 355.2 193.6zM208.7 246.2c-14.5 7.1-26.9 16.8-37.1 29.3 -1.4 1.7-1.7 3.2-0.6 5.2 1.2 2.5 3.2 4.6 3.5 7.4 -4.2-2.2-8.2-4.5-12.7-6.2 -1-0.4-1.9-0.8-0.9-2.1 13.1-17.4 27.7-32.9 48.8-41.4C209.9 241.5 209.4 243.9 208.7 246.2zM197.7 356.9c5.9-6.8 11.6-13.4 17.4-20 10.5-12.1 21.1-24.2 31.7-36.3 0.7-0.7 1-2.5 2.7-1.5 1.8 1 1.9 1.9 0.5 3.6 -9.3 10.5-18.4 21.1-27.6 31.6 -5.9 6.8-12 13.6-17.8 20.5C202.8 357 200.9 357.8 197.7 356.9zM180.7 309.3c4.6-4.5 5.3-12.3 13-14 0.6 5.3 1.4 10.9 1.9 16.4 0.2 2.5-3.6 4.2-6.2 2.8C186.4 312.9 183.6 311.1 180.7 309.3zM243.4 160.7c-3.8 2.4-8.3 3.8-11.4 7.3 -4.1 4.5-5.7 9.9-5.3 15.9 -2.3 1.6-4.7 3.3-7.1 4.9C215.8 175 228.3 160.4 243.4 160.7zM270.2 175.1c1.1 0 2.1-0.1 3.1 0.5 -5.8 5.8-23.5 8.7-32.9 5.8 2.5-2 5.1-3.3 8-4.1C255.9 178.8 263.2 178.1 270.2 175.1z"/></svg>