<?xml version="1.0" encoding="utf-8"?>
<!-- Generator: Adobe Illustrator 16.0.0, SVG Export Plug-In . SVG Version: 6.00 Build 0)  -->
<!DOCTYPE svg PUBLIC "-//W3C//DTD SVG 1.1//EN" "http://www.w3.org/Graphics/SVG/1.1/DTD/svg11.dtd">
<svg version="1.1" id="Layer_1" xmlns="http://www.w3.org/2000/svg" xmlns:xlink="http://www.w3.org/1999/xlink" x="0px" y="0px"
	 width="520.3px" height="520.3px" viewBox="-1.4 0 520.3 520.3" style="enable-background:new -1.4 0 520.3 520.3;"
	 xml:space="preserve">
<style type="text/css">
<![CDATA[
	.st0{fill:#4C4C4C;}
	.st1{opacity:0.3;enable-background:new    ;}
]]>
</style>
<path class="st0" d="M495.5,291.5c1.4-10.7,21.9-20.3,21.9-31.4c0-11.1-20.5-20.7-21.9-31.4c-1.4-10.9,15.9-25.5,13.2-36
	c-2.8-10.6-25.1-14.6-29.3-24.6c-4.2-10.1,8.8-28.8,3.4-38.2c-5.4-9.5-28-7.4-34.6-16.1c-6.6-8.7,1.1-30.1-6.5-37.8
	c-7.7-7.7-28.9,0.1-37.5-6.6c-8.6-6.6-6.6-29.3-16-34.8c-9.4-5.4-27.9,7.6-38,3.4c-10-4.2-13.9-26.6-24.4-29.4
	c-10.5-2.6-25,14.9-35.9,13.4c-10.6-1.4-20.2-22-31.2-22s-20.6,20.6-31.2,22c-10.9,1.4-25.4-16-35.8-13.2
	c-10.6,2.8-14.5,25.3-24.4,29.4c-10.1,4.2-28.6-8.9-38-3.4c-9.4,5.5-7.4,28.2-16,34.8c-8.6,6.7-29.9-1.1-37.5,6.6
	c-7.7,7.7,0.1,29.1-6.5,37.8c-6.6,8.6-29.1,6.6-34.6,16.1c-5.4,9.4,7.6,28.1,3.4,38.2c-4.1,10-26.4,14-29.3,24.6
	c-2.8,10.4,14.6,25,13.2,36c-1.5,10.6-22,20.2-22,31.3s20.5,20.7,21.9,31.4c1.4,10.9-15.9,25.5-13.2,36
	c2.8,10.6,25.1,14.5,29.3,24.6c4.2,10.1-8.8,28.8-3.4,38.2c5.5,9.5,28,7.5,34.6,16.1c6.6,8.7-1.1,30.1,6.5,37.8
	c7.7,7.7,28.9-0.1,37.5,6.6c8.6,6.6,6.6,29.3,16,34.8c9.4,5.4,27.9-7.6,38-3.4c10,4.2,13.9,26.6,24.4,29.4
	c10.4,2.8,24.9-14.7,35.8-13.2c10.6,1.4,20.2,22,31.2,22c11,0,20.6-20.6,31.2-22c10.9-1.4,25.4,16,35.8,13.2
	c10.6-2.8,14.5-25.3,24.4-29.4c10.1-4.2,28.6,8.9,38,3.4s7.4-28.2,16-34.8c8.6-6.7,29.9,1.1,37.6-6.6c7.7-7.7-0.1-29.1,6.5-37.8
	c6.6-8.6,29.2-6.6,34.6-16.1c5.4-9.4-7.6-28.1-3.4-38.2c4.1-10,26.4-13.9,29.3-24.6C511.4,317.1,494.1,302.5,495.5,291.5z
	 M258.7,488.8c-125.4,0-227.4-102.6-227.4-228.7c0-126.1,102-228.7,227.4-228.7c125.4,0,227.4,102.6,227.4,228.7
	C486.1,386.2,384.1,488.8,258.7,488.8z M261.3,208.5c-0.1,0.5-0.4,0.9-0.9,0.9c-1.7,0.1-3.4,0.2-5.5,0.3c1.7-2.3,3.8-1.7,5.6-2
	C261,207.6,261.4,207.9,261.3,208.5z M98.1,369.5l1.6,2.3l3.6-4L98.1,369.5z M261.4,205.1c0.6-0.2,1.6,0,1.4-1
	c-0.1-1-0.8-1.1-1.8-1.2c-2.2-0.2-4.1,0.3-6.4,2.2C257.4,205.2,259.4,205.8,261.4,205.1z M438.8,334.9c-0.5-0.2-0.9-0.2-1.3,0.1
	c-0.4,0.2-0.8,0.6-1,1.2l-0.7,1.6l3.3,1.4l0.6-1.4c0.3-0.7,0.4-1.3,0.3-1.8C439.8,335.6,439.5,335.2,438.8,334.9z M480.7,260.2
	c0,123.1-99.6,223.2-222,223.2c-122.4,0-221.9-100.1-221.9-223.2S136.3,37,258.7,37C381.1,37,480.7,137.1,480.7,260.2z M441.6,218.2
	l-12.4,1.5l9.5,8.1l-2.4,12.3l10.6-6.6l10.9,6.1l-3-12.2l9.1-8.5l-12.4-0.9l-5.2-11.4L441.6,218.2z M407.6,124.8l-5.2,15.7l-5.4,4
	l-2.1-2.8l-6.6,4.9l11.8,16.1l6.6-4.9l-2.1-2.9l6.4-4.7l14.1-1.5l2.4,3.3l6.5-4.8l-8.6-11.8l-6.5,4.8l2,2.7l-6.9,0.9l2.5-7l1.2,1.7
	l6.5-4.8l-11.5-15.8l-6.5,4.8L407.6,124.8z M334.3,103.2l12.8,8.5l4.5-6.7l-3.1-2l7.8-11.8L352,115l5.5,3.7l18.7-13.6l-7.5,11.4
	l-2.5-1.6l-4.5,6.7l15.9,10.6l4.5-6.7l-3.7-2.4l11.3-17l3.7,2.4l4.5-6.7l-15.3-10.2L367,102.4l3.8-18.6l-16.4-10.9l-4.5,6.7l3.7,2.4
	l-11.3,17l-3.7-2.4L334.3,103.2z M305.3,95.7l18.3,5.3l2.3-7.8l-3.5-1l5.7-19.5l3.5,1l2.3-7.8l-18.3-5.3l-2.3,7.8l3.5,1L311.1,89
	l-3.5-1L305.3,95.7z M263.7,82.6c1.4,3,3.5,5.3,6.2,6.9c2.7,1.6,5.7,2.6,9.1,2.9c2.4,0.2,4.8,0.2,6.9-0.1c2.1-0.3,4.3-0.9,6.3-1.9
	l0.8-9.7l-0.5-0.5c-1.1,0.6-2.5,1.2-4.1,1.7c-1.7,0.5-3.4,0.7-5.3,0.5c-2.7-0.2-4.7-1.2-6.1-3.1c-1.4-1.9-2-4.3-1.7-7.4
	c0.1-1.6,0.5-3.1,1.2-4.5s1.5-2.5,2.6-3.4c1.1-0.8,2.2-1.2,3.4-1.1c1.7,0.1,3,0.9,3.8,2.2c0.8,1.3,1.1,2.9,1,4.9l-0.1,0.7l7.3,0.6
	l1.2-14.9l-7.1-0.6l-1.2,3.6c-0.5-1.3-1.5-2.5-2.8-3.4c-1.3-0.9-2.9-1.5-4.7-1.6c-3.5-0.3-6.5,0.3-9.1,1.8s-4.6,3.6-6.1,6.3
	s-2.4,5.8-2.6,9.3C261.7,76,262.2,79.6,263.7,82.6z M258.7,97.8c-89.2,0-161.5,72.7-161.5,162.4c0,89.7,72.3,162.4,161.5,162.4
	s161.5-72.7,161.5-162.4C420.2,170.5,347.9,97.8,258.7,97.8z M223.7,50.1l2.5,3.2l12.1-5.9l-3.8-5.9L223.7,50.1z M217.4,68.1
	c0.3,2.9,1.2,5.1,2.5,6.7c1.4,1.6,3,2.8,5,3.5c2,0.7,4.5,1.3,7.5,1.8c1.2,0.2,2.1,0.4,2.8,0.7c0.7,0.3,1.1,0.8,1.2,1.6
	c0.1,0.6-0.2,1.1-0.8,1.5s-1.3,0.7-2.2,0.8c-1.4,0.2-2.7,0-3.7-0.4c-1-0.4-1.9-1.2-2.5-2.5l-7.3,0.9l1.3,11.1l7.4-0.9l0.5-2.2
	c1.4,0.8,2.7,1.4,3.8,1.7c1.2,0.3,2.7,0.3,4.5,0.1c2.3-0.3,4.2-1,5.9-2.3c1.6-1.3,2.8-2.9,3.6-4.8c0.7-1.9,1-4.1,0.7-6.3
	c-0.3-2.7-1.1-4.8-2.5-6.4c-1.3-1.6-3-2.7-5-3.4c-2-0.7-4.4-1.2-7.2-1.5c-1.6-0.2-2.8-0.4-3.7-0.7c-0.9-0.3-1.3-0.8-1.4-1.5
	c-0.1-0.7,0.2-1.2,0.7-1.6s1.3-0.7,2.4-0.8c1.4-0.2,2.5,0,3.3,0.4c0.9,0.4,1.7,1.3,2.5,2.6l7-0.8l-1.3-10.9l-6.5,0.8l-0.9,2.3
	c-1.9-1.7-4.4-2.3-7.3-2c-2.4,0.3-4.4,1-6.1,2.1c-1.7,1.1-2.9,2.6-3.6,4.4C217.4,63.9,217.2,65.9,217.4,68.1z M163,74.6l2.9,7.6
	l2.4-0.9l13.8,9.2l2.4,6.3l-3.3,1.3l2.9,7.7l18.6-7.1l-2.9-7.7l-3.4,1.3l-2.8-7.4l2.3-14l3.9-1.5l-2.9-7.6L183.2,67l2.9,7.6l3.1-1.2
	l-0.9,6.9l-6.1-4.2l1.9-0.7l-2.9-7.6L163,74.6z M118.9,105l9.3,12l5.2-4.1l-2.9-6.8l5.7-4.4l0.2,25.7l4.9,6.4l25.6-19.8l-9.7-12.6
	l-5.1,3.9l2.7,7.6l-5.6,4.3l-0.4-25.9l-4.6-5.9L118.9,105z M92.7,150c1.5,2.7,3.7,5.1,6.5,7.2c3.3,2.5,6.7,3.9,10,4.3
	c3.3,0.4,6.4-0.2,9.2-1.6c2.8-1.4,5.2-3.5,7.2-6.2c1.5-2,2.6-3.9,3.6-5.9c0.9-2,1.5-4.1,1.8-6.3l-7.9-5.8l-0.6,0.2
	c0,1.3-0.3,2.7-0.7,4.4c-0.5,1.7-1.2,3.3-2.4,4.8c-1.6,2.1-3.5,3.3-5.8,3.5c-2.3,0.2-4.7-0.6-7.2-2.4c-1.3-0.9-2.3-2.1-3.2-3.4
	c-0.8-1.3-1.3-2.7-1.5-4c-0.1-1.3,0.1-2.5,0.8-3.4c1-1.4,2.3-2.1,3.9-2.1c1.5,0,3.1,0.6,4.6,1.8l0.6,0.4l4.4-5.9l-12.1-8.9l-4.3,5.7
	l2.4,3c-1.4-0.3-2.9-0.1-4.4,0.6c-1.5,0.6-2.8,1.7-3.9,3.1c-2.1,2.8-3.2,5.7-3.3,8.6C90.5,144.4,91.2,147.3,92.7,150z M63.3,227.7
	L60.9,240l10.6-6.6l10.9,6.1l-3-12.2l9.1-8.5l-12.4-0.9l-5.2-11.4l-4.7,11.6l-12.4,1.5L63.3,227.7z M67.6,316.4
	c1.8,1.4,4,1.8,6.7,1.3c2.8-0.5,4.7-1.7,5.8-3.6s1.4-4.4,0.8-7.4l-1.4-7.8l-3.7,0.7l0.3,1.7l-9.4,1.7l-0.3-1.7l-3.7,0.7l1.4,7.8
	C64.7,312.8,65.8,315,67.6,316.4z M74.8,334.6l-0.5-1.6l3.5-1.2l6.5,1.3l0.6,1.8l3.6-1.2l-2.2-6.5l-3.6,1.2l0.5,1.5l-3.2-0.5
	l2.1-2.8l0.3,0.9l3.6-1.2l-2.9-8.7l-3.6,1.2l0.4,1.1l-4.5,6.3l-3,1l-0.5-1.6l-3.6,1.2l3,8.8L74.8,334.6z M83.1,361.5l13.5-2.9
	l0.8,1.6l3.4-1.7l-3.3-6.3l-3.4,1.7l0.7,1.3l-5.9,1.2l7.3-6.8l-2-3.9l-10.1,2.1l4.6-4.3l0.7,1.4l3.4-1.7l-4.4-8.5l-3.4,1.7l1,1.6
	l-10.1,9.4l2.6,5.1l7.7-1.6l-5.8,5.3L83.1,361.5z M98.3,384.1l3.1-2.2l-1-1.4l8.7-10.8L103,361l-3.1,2.2l1.3,1.8l-9.5,3.1l-1-1.4
	l-3.1,2.2l4.4,6.2l3.1-2.2l-1.2-1.7l1.8-0.7l2.2,3.2l-1.2,1.4l-0.8-1.1l-3.1,2.2L98.3,384.1z M111.2,398.9l10-8.8l1.1,1.3l2.8-2.5
	l-4.5-5.1l-2.8,2.5l1.1,1.3l-4.8,4.2l4.1-10.7l-5.2-5.9l-2.8,2.5l1.1,1.3l-7.1,6.3l-1.1-1.3l-2.9,2.5l4.5,5.1l2.9-2.5l-1.1-1.3
	l4.2-3.7l-3.7,10L111.2,398.9z M138.5,401.4l-5-4.7l-2.6,2.8l1.1,1.1l-3.1,1l0.5-3.4l0.7,0.7l2.6-2.8l-6.7-6.2l-2.6,2.8l0.9,0.8
	l-1,7.7l-2.1,2.3l-1.2-1.1l-2.6,2.8l6.8,6.4l2.6-2.8l-1.2-1.2l2.5-2.7l6.3-1.9l1.4,1.3L138.5,401.4z M147.8,418.1l-2.3-2.2l0.8-3.1
	l-2.8,1.5l-2.7-1.7l0.6,3.1l-2.4,2l3.1,0.4l1.2,2.9l1.3-2.9H147.8z M182.2,434.2l1.8-3.3l-6.2-3.4l-1.8,3.3l1.3,0.7l-4.2,4.3
	l2.2-9.7l-3.9-2.1l-7.2,7.4l1.4-6.2l1.4,0.8l1.8-3.3l-8.4-4.6l-1.8,3.3l1.5,0.8l-3.1,13.5l5.1,2.8l5.5-5.6l-1.8,7.7l5.1,2.8l9.6-9.9
	L182.2,434.2z M191,447.7l1.4-3.5l5.2-4.1l1.8,0.7l1.4-3.5l-6.4-2.5l-1.4,3.5l1.5,0.6L192,441l-0.8-3.4l0.9,0.4l1.4-3.5l-8.5-3.4
	l-1.4,3.5l1.1,0.4l1.8,7.5l-1.2,2.9l-1.5-0.6l-1.4,3.6l8.7,3.5l1.4-3.6L191,447.7z M217.9,446.3l1-3.6l-6.4-1.8l-1,3.6l-3.8,3
	l1.1-3.7l1.3,0.4l1-3.6l-8.2-2.4l-1,3.6l1.6,0.5l-2.6,9.2l-1.6-0.5l-1,3.6l8.6,2.5l1-3.6l-1.6-0.5l0.8-2.9l1.5,0.4
	c0.3,0.1,0.5,0.3,0.7,0.7c0.1,0.4,0.1,0.8,0,1.1l-0.5,1.8c-0.6,2.1,0.2,3.5,2.6,4.2l3.8,1.1l1-3.6l-1.2-0.3
	c-0.2-0.1-0.4-0.2-0.4-0.4c-0.1-0.2-0.1-0.4,0-0.6l0.5-1.7c0.3-0.9,0.1-1.7-0.4-2.3s-1.3-1-2.5-1.3v-0.1l4.4-3L217.9,446.3z
	 M233.5,455l-3-0.6l-1.6,3.5l-2-0.4l1-5.2l2.6-0.9l-0.7-2.1l-1.4,0.5l0.4-1.9l1.6,0.3l0.7-3.7l-9.2-1.7l-0.7,3.7l1.6,0.3l-1,5.4
	l-2.1,0.7l0.7,2.1l0.9-0.3l-0.3,1.7l-1.5-0.3l-0.7,3.8l13.4,2.5L233.5,455z M254,460.8l-1.7-0.1l-2.7-13.6l-10.6-0.9l-0.3,3.8
	l2.2,0.2l-3.7,9.2l-1.7-0.1l-0.3,3.8l7.5,0.6l0.3-3.8l-2-0.2l0.6-1.8l3.9,0.3l0.3,1.9l-1.4-0.1l-0.3,3.8l9.6,0.8L254,460.8z
	 M273.7,455.7c-0.1-2.8-0.9-4.9-2.6-6.3c-1.7-1.4-4.1-2.1-7.2-2l-7.9,0.2l0.1,3.8h1.7l0.2,9.5h-1.7l0.1,3.8l7.9-0.2
	c3.1-0.1,5.5-0.9,7.1-2.4C272.9,460.5,273.7,458.4,273.7,455.7z M293,462l-0.9-7.4l-3,0.4l-0.7,3.7l-3.3,0.4l6-10.5l-0.4-3.5
	l-14.9,1.8l0.9,7.1l3.1-0.4l0.4-3.4l3.4-0.4l-6.1,10.4l0.5,3.7L293,462z M305.7,459.4l-0.8-3.7l-1.7,0.3l-1.9-9.3l1.7-0.3l-0.8-3.7
	l-8.8,1.8l0.8,3.7l1.7-0.3l1.9,9.3l-1.7,0.3l0.8,3.7L305.7,459.4z M325.1,454.1l-3.8-12.8l1.6-0.5l-1.1-3.6l-6.6,1.9l1.1,3.6
	l1.6-0.5l1.8,6.1l-8-8.2l-7.6,2.2l1.1,3.6l1.6-0.5l2.7,9.1l-1.7,0.5l1.1,3.7l6.6-1.9l-1.1-3.7l-1.6,0.5l-1.6-5.4l7.5,7.6
	L325.1,454.1z M342,447.5l-1.5-3.6l-1.6,0.6l-1.4-3.4l0.9-6.6l1.8-0.7l-1.4-3.5l-6.3,2.6l1.4,3.5l1.4-0.6L335,439l-2.9-1.9l0.9-0.4
	l-1.4-3.5l-8.5,3.5l1.4,3.5l1.1-0.5l6.6,4.1l1.2,2.9l-1.5,0.6l1.5,3.6L342,447.5z M359.9,433.9l-1.9-2.5l1.3-2.9l-3,1l-2.4-2.1
	l0.1,3.2l-2.7,1.6l3,0.9l0.7,3.1l1.8-2.6L359.9,433.9z M383.5,423.2l-2.2-3.2l-1.4,1l-5.5-7.7l1.3-0.9l2.1,2.1l2.5-1.7l-3.9-5.5
	l-13.1,9.3l3.9,5.5l2.5-1.7l-1.3-2.7l1.2-0.9l5.5,7.7l-1.4,1l2.2,3.2L383.5,423.2z M402.7,407.3l-2.5-2.9l-1.3,1.1l-11.6-7.6l-8,7
	l2.5,2.9l1.7-1.5l4,9.1l-1.3,1.1l2.5,2.9l5.7-4.9l-2.5-2.9l-1.5,1.3l-0.8-1.7l2.9-2.5l1.5,1.1l-1,0.9l2.5,2.9L402.7,407.3z
	 M411,398.7l-2.8-2.7l-1.1,1.1l-1.6-1.6c0.4-0.3,0.8-0.7,1.2-1.1c1.6-1.7,2.5-3.3,2.6-4.9c0.1-1.6-0.6-3-2.2-4.5
	c-1.4-1.3-2.8-1.7-4.2-1.2c-1.5,0.5-2.9,1.5-4.3,3l-6.3,6.6l2.8,2.6l1.1-1.2l6.9,6.5l-1.2,1.2l2.8,2.7L411,398.7z M424.1,383.5
	l-2.9-2.4l-1.1,1.3l-7.4-6l1.1-1.3l-2.9-2.4l-5.6,6.9l2.9,2.4l1.1-1.3l7.4,6l-1.1,1.3l2.9,2.4L424.1,383.5z M433.5,368.2l-3.8-2.6
	l-0.3,0.1c0,0.6-0.1,1.3-0.3,2.1c-0.2,0.8-0.5,1.5-1,2.3c-0.7,1-1.6,1.6-2.7,1.7c-1.1,0.1-2.2-0.2-3.4-1c-0.6-0.4-1.1-0.9-1.5-1.5
	s-0.7-1.2-0.8-1.8c-0.1-0.6,0-1.2,0.3-1.6c0.5-0.7,1.1-1,1.8-1s1.4,0.2,2.2,0.8l0.3,0.2l2-2.8l-5.8-4l-1.9,2.8l1.2,1.3
	c-0.7-0.1-1.3,0-2,0.3c-0.7,0.3-1.3,0.8-1.8,1.5c-0.9,1.3-1.4,2.7-1.4,4.1s0.4,2.7,1.1,3.9c0.8,1.2,1.8,2.3,3.2,3.3
	c1.6,1.1,3.2,1.7,4.7,1.8s3-0.2,4.3-0.9c1.3-0.7,2.4-1.7,3.3-3c0.7-0.9,1.2-1.9,1.6-2.8C433.2,370.3,433.5,369.3,433.5,368.2z
	 M443.7,352.8l-6.4-3.6l-1.3,2.4l2.5,2.6l-1.5,2.7l-3.4-1.9l1.3-2.4l-2.5-1.4l-1.3,2.4l-2.4-1.4l1.5-2.7l3.1,0.6l1.3-2.4l-5.9-3.3
	l-7,12.6l3.3,1.8l1-1.8l8.3,4.7l-1,1.8l3.3,1.8L443.7,352.8z M452.2,333.2l-3.5-1.5l-0.9,2.2l-1.3-0.5c-0.8-0.4-1.6-0.4-2.4-0.3
	c-0.7,0.2-1.4,0.7-1.9,1.6c0.3-1.1,0.2-2.1-0.1-2.9c-0.3-0.8-1-1.4-2-1.9c-1.5-0.6-2.8-0.7-3.8-0.2s-1.8,1.6-2.5,3.2l-4.3,10.1
	l3.5,1.5l0.7-1.6l8.8,3.7l-0.7,1.6l3.5,1.5l3.5-8.2l-3.5-1.5l-0.7,1.6l-3.3-1.4l0.5-1.2c0.3-0.7,0.7-1.1,1.2-1.2s1.2,0,2,0.4
	c1.4,0.6,2.5,0.9,3.2,0.9s1.2-0.2,1.5-0.6c0.3-0.4,0.7-1.1,1.1-2.1L452.2,333.2z M457.9,312.9l-3.7-1l-0.3,1.2
	c-0.1,0.2-0.2,0.4-0.4,0.4c-0.2,0.1-0.4,0.1-0.6,0l-1.7-0.5c-0.9-0.3-1.7-0.1-2.3,0.4c-0.6,0.5-1,1.4-1.3,2.5h-0.1l-3.1-4.4l0.4-1.4
	l-3.7-1l-1.8,6.5l3.7,1l3,3.8l-3.8-1l0.4-1.3l-3.7-1l-2.3,8.3l3.7,1l0.5-1.7l9.2,2.5l-0.5,1.7l3.7,1l2.3-8.6l-3.7-1l-0.5,1.7
	l-2.9-0.8l0.4-1.5c0.1-0.3,0.3-0.5,0.7-0.7c0.4-0.2,0.8-0.2,1.1-0.1l1.8,0.5c2.1,0.6,3.5-0.3,4.1-2.6L457.9,312.9z M459.8,299.9
	l-3.7-0.5l-0.2,1.7l-9.4-1.4l0.2-1.7l-3.7-0.5l-1.3,8.8l3.7,0.5l0.2-1.7l9.4,1.4l-0.2,1.7l3.7,0.5L459.8,299.9z M263.9,451.1h-0.7
	l0.2,9.5h0.7c1.2,0,2.1-0.5,2.6-1.4c0.5-0.9,0.8-2.1,0.7-3.4c0-1.4-0.3-2.5-0.9-3.4C266,451.5,265.1,451.1,263.9,451.1z
	 M262.7,195.6c-3.4-1-5.4,0.7-7,3.8C259.1,199.7,262.2,199.9,262.7,195.6z M107.8,259.9c0.1-83.2,67.8-150.8,151-150.8
	c83.8,0,151,67.7,150.9,151.9c-0.1,82.9-68.1,150.1-151.8,149.9C175.3,410.8,107.7,342.8,107.8,259.9z M222.4,334.2
	c9.2-10.6,18.4-21.2,27.6-31.6c1.5-1.7,1.3-2.6-0.5-3.6c-1.7-1-2.1,0.8-2.7,1.5c-10.6,12.1-21.2,24.2-31.7,36.3
	c-5.8,6.6-11.5,13.2-17.4,20c3.1,1,5,0.1,6.9-2.1C210.4,347.8,216.5,341.1,222.4,334.2z M208.7,246.2c0.6-2.4,1.2-4.7,1-7.6
	c-21.2,8.5-35.8,24-48.8,41.4c-0.9,1.2-0.1,1.7,0.9,2.1c4.4,1.6,8.5,4,12.7,6.2c2.4,2,5.1,3.8,6.9,6.4c0.9,1.3,1.9,1.2,3.1,0.7
	c4.1-1.6,7.2-6,7.5-10.5c0.3-5.6,1.4-11.1,4.8-16.4c0.2,1,0.2,1.4,0.3,1.7c1,13.1,2,26.3,2.9,39.4c0.2,2.5,0.5,3.6,3.2,2
	c3.1-1.8,6.6-3,10.3-3.1c1.2,0,2.8-0.3,3.4,0.6c1.6,2.6,3,1.2,4.6,0.1c3.8-2.6,6-2.4,9,1.2c1.3,1.5,1.9,1.3,3-0.1
	c3.1-3.7,6.3-7.4,9.4-11c1.2-1.4,2.4-2.5,1.5-4.9c-0.7-2,0.5-4.2,1.7-6.1c2.1-3.3,3.8-6.8,6.5-9.7c0.9-1,1.7-2.1-0.3-3.4
	c-2.2-1.5-1.7-3.5,0.8-4.6c2.9-1.3,5.8-2.3,8.7-3.7c1.8-0.9,3.5-0.9,5.1,0.1c1.9,1.2,3,0.8,4.5-0.9c6.3-7.5,12.6-15,19.1-22.3
	c2.2-2.5,1.4-3.7-1-4.6c-6.5-2.3-13.2-3.9-20.1-4.5c-2-0.2-2.7,0.4-2.7,2.6c-0.1,4.9-1,9.6-3.5,13.9c-1.5,2.5-2.7,3.5-5.1,0.6
	c-3.4-3.9-4.5-3.8-8.8-0.6c-1.6,1.1-3.2,2.2-4.8,3.3c-0.3-0.2-0.5-0.4-0.8-0.6c2-2.4,4.1-4.8,6-7.3c2.1-2.9,4.4-3,7.2-1.1
	c0.8,0.5,1.6,1.1,2.7,1.8c1.4-4.6,2.6-9,1.9-13.6c-0.2-1.1-0.5-2.4-1.5-2.8c-1.3-0.5-1.7,1-2.4,1.8c-8.3,10.4-16.6,20.8-24.9,31.2
	c-1.1,1.4-2.2,2.7-3.5,4.4c-0.5-1-0.7-1.5-0.9-2c-4.1-10.5-7.1-21.3-7.2-32.7c0-2.9-1.2-2.7-3-1.5c-0.6,0.4-1.2,0.9-1.6,1.5
	c-3.5,5.4-4.9,11.3-4.1,18c4-3.9,4-3.9,7.3-3.4c-0.6,0.9-1.1,1.6-1.7,2.4c-1.8,2.4-3.7,4.8-5.5,7.2c-1.4,1.9-1.9,0.3-2.4-0.7
	C208.2,253.5,208.7,249.8,208.7,246.2z M259.8,170.6c-4.6-5.4-9.1-9.9-16.4-9.9c-15.1-0.4-27.6,14.3-23.8,28.1
	c2.4-1.7,4.7-3.3,7.1-4.9C237.1,178.2,247.8,173.6,259.8,170.6z M248.5,177.3c-2.9,0.7-5.5,2.1-8,4.1c9.4,2.9,27.2,0.1,32.9-5.8
	c-1-0.6-2.1-0.5-3.1-0.5C262.6,171.9,255.4,173.8,248.5,177.3z M230.9,208.9c-0.9,1.6-1.8,3-3.9,2.2c-0.9-0.3-0.9,0.2-1,0.8
	c-2.1,10.8-3.2,21.5,1.1,32c0.4,1,0.8,1.6,1.9,2c5.2,1.9,11.2,0.3,14.8-3.9c1.6-1.9,3.3-3.9,4.9-5.8c3.4-4.1,3.5-5.9-0.2-9.9
	c-2.5-2.6-5.4-4.9-8-7.3c-2.6-2.5-5-5.1-5.6-9c6.7,6.9,14.6,9,23.8,7.3c3.3-0.6,5.2-2.2,5.9-5.4c1.4-6.6,1-13.2,0.2-19.8
	c-0.1-0.6-0.1-1.2-0.7-1.6c-4.2-2.5-8.4-4.2-13.1-0.9c-2.2,1.6-4.9,1.8-7.8,1.1c0.6-1.1,1-2,1.5-2.9c-7.6-1.9-7.6-1.9-9.7,4.3
	c-1.6,4.8-2.9,5.3-7.2,2.8c-1.6-0.9-3.1-1.5-4,0.9C221.9,200.5,225.9,208,230.9,208.9z M235.9,250.8c-2.7-0.4-5.5-0.5-8.3-0.5
	c-0.8,0-0.6,0.9-0.4,1.4c0,0.1,0.1,0.2,0.1,0.3c0.9,3.2,1.9,6.4,3.1,10.4c2-3.8,3.7-6.8,5.4-9.9C236.1,252,236.7,250.9,235.9,250.8z
	 M321.2,272.4c-4.1-7.5-9.3-14.1-15.3-20.1c-1.4-1.4-2.2-1.2-3.3,0.3c-3.5,4.5-7.2,8.8-10.7,13.3c-2.4,3.1-5.5,5.8-7.1,9.5l0,0
	c0,0,0,0-0.1-0.1v0.1c-4.4,3.4-4.7,4.3-2.2,8.2c0.9-2.8,1.9-5.4,2.2-8.2c0,0,0.1,0,0.1-0.1c2.7,2.6,2.6,6.4,4,9.6
	c0.9,2,7.7,6.6,9.8,6.4c0.7-0.1,1-0.6,1.3-1.1c4.4-7.9,11.8-11.6,19.9-14C322.5,275.4,322.4,274.5,321.2,272.4z M302.8,291.1
	c-0.4,0.7-1.3,1.7,0.1,1.9c3.2,0.4,6.3,2.4,9.8,0.9c7.9-3.5,15.8-5,23.9-0.5c0-6.5-4-11.6-9.7-12.9
	C318.3,278.7,307.4,283.4,302.8,291.1z M307,238.9c8.1-3.8,15.8-8,22.3-14.5c7.3-7.2,15.1-13.9,22.8-20.8c1.9-1.8,3.6-3.9,6.8-3.4
	c0.8,0.1,1.3-0.5,1.7-1.2c1.4-2.8,2.8-5.5,4.6-8.9c-4.2,0.2-7.2,0.9-9.9,3.5c-6.3,6-12.7,11.9-19.3,17.6c-8,7-15.1,15.1-24.7,20
	c-6.1,3.2-11,7.7-15.4,13c-6.9,8.4-14.3,16.4-21.4,24.7c-0.7,0.8-2.2,1.5-0.5,2.9c1.3,1.1,2.3,1,3.3-0.4c0.3-0.5,0.8-0.9,1.2-1.4
	c8-9.2,16.1-18.4,24-27.6C303.8,240.9,305.2,239.7,307,238.9z M227.7,316.1c-0.2-1.4-1-2.7-2.9-2.5c-1.5,0.2-3.2,0.7-3.2,2.2
	c0,2.1,2.1,1.8,4.1,2C226.5,317.9,227.9,317.8,227.7,316.1z M193.6,295.3c-7.6,1.7-8.3,9.5-13,14c2.9,1.7,5.7,3.5,8.7,5.2
	c2.5,1.4,6.4-0.3,6.2-2.8C195,306.1,194.3,300.6,193.6,295.3z M160.3,286.7c-4.4-1.7-6.8-1-9.7,2.6c-0.8,1-1.9,2.2-1.5,3.5
	c0.4,1.6,2.2,1,3.4,1.2c8.4,1.2,16,3.6,20.9,11.3c0.4,0.6,0.8,1.1,1.7,0.8c1.8-0.4,5.1-4.4,5-7.2c0-0.2-1-0.6-1.7-1.3
	C173.1,292.8,167,289.2,160.3,286.7z M142.3,312.1c-0.3,2.2,0.5,3.7,2.4,5.2c13.1,10.6,28.4,15.2,44.8,16.6
	c4.6,0.4,8.8,0.9,11.8,4.9c0.9,1.2,2.2,1.6,3.4,0.5c1.3-1.1,1.5-2.4,0.5-3.8c-1-1.4-2-2.7-2.9-4.1c-0.6-0.8-1.6-1.6-0.3-3.2
	c1.4,1.9,2.7,3.7,4.1,5.4c0.9,1.1,1.4,3.3,3.5,1.5c1.6-1.4,2.5-2.8,0.8-4.9c-1.3-1.6-2.3-3.4-3.4-5.1c-0.5-0.8-1.8-1.9-0.4-2.7
	c1.1-0.7,1.5,0.9,1.9,1.6c1.2,1.9,2.3,4,3.6,5.9c0.5,0.8,0.7,2.5,2.2,1.5c1.2-0.8,2.4-1.8,1.6-3.5c-0.5-1.1-1.2-2.1-1.7-3.2
	c-0.9-2.1-3.1-3.7-2.5-6.7c2.4,1.6,3,4.2,4.6,6.2c0.8,1,1.2,3.1,3.1,1.9c1.7-1.1,1.7-2.7,0.7-4.4c-1.3-2.2-2.6-4.4-3.5-6.7
	c-1.2-3.3-3.2-3.5-6.1-2.3c-5.4,2.2-10.9,4.1-16.2,6.2c-2.7,1.1-4.9,0.9-7.4-0.8c-6-3.9-12.1-7.5-18.2-11.2
	c-0.5-0.3-1.4-0.2-1.4-0.9c0.1-3.9-3.4-4.6-5.8-5.5C147.5,294.9,144.6,296.8,142.3,312.1z M260.6,307.2c-1.2-0.8-1.8-0.7-2.6,0.4
	c-11.1,13.7-22.2,27.4-33.6,41.6c16.1,0.8,22.1-2.3,29.9-15.5c3.6-6,5.8-12.8,8.9-19C265.4,310.3,263.3,309.1,260.6,307.2z
	 M282.9,311.3c10.9,6.8,22,13.1,34.2,17.3c6.4,2.2,13,3.7,19.9,3.4c1.6-0.1,2.9-0.3,3.7-2.1c2.7-6.4,4-13,2.6-19.8
	c-1-4.9-2.2-10.6-6.5-12.9c-6.7-3.7-14.3-3.6-22.3-0.6c5.3,1.8,9.8,3.4,14.4,5c-0.8,0.6-1.4,0.6-2,0.5c-12.6-2.3-25.2-4.5-37.8-6.9
	c-2.4-0.5-4.1-0.4-5.3,2.2c-0.7,1.6-1.8,3.2-4.5,3.6c0.5-1.2,0.7-2.1,1.1-2.7c2-3.1,1.4-6,0.5-9.5c-2-7.1-5.8-12.2-12.4-15.3
	c-1.4-0.7-2.7-1.6-4-2.5c-1.7-1.3-3.3-1.8-4.6,0.2c-1.3,2-0.6,3.6,1.2,4.9c2,1.4,3.9,2.9,5.8,4.4c0.9,0.7,2.6,1.4,1.7,2.7
	c-1,1.6-2.1-0.2-3-0.7c-2.2-1.3-4.3-2.8-6.3-4.3c-2.2-1.7-3-0.4-3.6,1.4c-0.5,1.4,0.1,2.5,1.4,3.4c2.1,1.5,4,3.1,6.1,4.6
	c0.8,0.6,1,1.4,0.5,2.2c-0.8,1.2-1.5,0.2-2.1-0.2c-1.9-1.3-3.6-2.8-5.5-4.1c-1-0.7-2-2.5-3.5-0.4c-1.1,1.6-1.2,3,0.5,4.4
	c2,1.6,4,3.2,5.8,4.9c0.7,0.6,2.5,1.1,1.4,2.4c-1,1.1-1.9-0.5-2.6-1c-1.6-1.1-3.1-2.4-4.6-3.5c-1.2-0.9-2.3-2.4-3.8-0.3
	c-1.3,1.7-1,2.9,0.7,4.2c3.4,2.5,6.9,5,9.9,7.9c4.8,4.6,10.5,6.3,16.9,5.8C279.1,309.4,281,310.1,282.9,311.3z M123.6,278.7
	c5,37.3,23.2,67.2,52.7,90.3c2.1,1.6,3.2,1.6,4.8-0.6c5-7,10.3-13.7,15.5-20.6c2.5-3.3,1.1-7-3-7.9c-2.2-0.5-4.5-1-6.7-1.5
	c-14.9-3-29.4-7-42.4-15.2c-6.6-4.2-7.3-6-5.8-13.8c1.3-6.8,4.6-12.9,6.5-19.6c0.9-3.1,3.3-5.6,6.2-6.8c4.2-1.6,6.7-5,9.4-8.2
	c3.3-4,6.7-8,9.9-12.1c8.7-11.2,19.8-19.4,32.5-25.5c4.7-2.3,10.1-3.6,12.5-9c0.2-0.4,0.6-0.8,1.1-1c4.6-1.5,4.8-5.3,5.1-9.2
	c0.1-2.2,0.5-4.3,0.8-6.5c0.2-1.1,0.2-2.1-0.6-3c-4.7-5.8-6-12.7-6.5-20c-1.4-18.9,10-31.2,28.9-30.9c5.9,0.1,11.7,1.9,14.4,7
	c3.4,6.5,8.9,7.3,14.8,8.3c0.7,0.1,1.4,0.2,2.2,0.3c3.8,0.8,4.7,2.9,2.7,6.3c-1.8,3-4.5,5.2-7.5,6.7c-2.6,1.3-3.1,3.1-3,5.8
	c0.2,6.6,0.7,13.3,0.1,19.9c-0.3,3.9-2.2,6.8-6.2,8.1c-0.9,0.3-2.6-0.1-2.6,1.3c-0.1,1.3,0.8,2.6,2,3.3c1.5,0.9,3,1.7,3.9,3.1
	c1.3,2.1,3.2,2.5,5.5,2.7c8.1,0.6,16.2,1.3,23.2,6.2c1.4,1,2.3,0.3,3-0.8c2.7-4.1,6.9-6.3,10.8-8.9c4.3-2.9,9-5.3,12.9-8.8
	c9.4-8.4,18.9-16.6,27.9-25.4c5.1-5.1,10.8-7.7,17.8-8.5c2.3-0.3,2.6,0.4,2.6,2.4c-0.1,8.1,0,16.4,0,24.4c-0.4,0-0.7,0-1.1,0
	c0,8,0,16.1,0,24.2c0,1,0.4,2.4-0.8,2.9c-3.3,1.3-6.2,3.6-10.2,2.8c-4.5-0.9-9.2-2.1-13.6-1.7c-10.7,1-21.3,2.7-32,4.4
	c-3,0.5-4.5,3.8-2.8,5.6c6.9,7.4,12.7,15.5,18.4,23.8c1.1,1.6,2.4,2.8,4.2,3.8c6.9,3.9,10.9,9.8,11.3,17.8c0.1,1.4,0.3,2.6,1,3.8
	c4.9,8,5.6,16.6,3.6,25.5c-2.9,12.7-5.1,14.2-18.1,11.9c-11.5-2.1-21.7-7.3-31.8-12.7c-2.1-1.1-3.1-1.1-3.9,1.3
	c-1.8,5-3.6,10-5.7,14.9c-1.1,2.5-0.9,4.4,0.6,6.7c7.8,11.9,15.6,23.9,23.1,36c1.8,2.9,3.2,3.1,6.2,1.7
	c56.5-27,87.2-87.4,75.8-149.4c-14.5-78.8-96.4-128.7-173-105.3C154.7,148.8,114.5,210.9,123.6,278.7z M242.4,455.4l2.8,0.2
	l-0.8-5.3L242.4,455.4z M402.3,389.2c-0.5,0.1-0.9,0.3-1.3,0.7l-0.6,0.7l2.8,2.6l0.3-0.3c1.1-1.2,1.2-2.3,0.1-3.3
	C403.1,389.3,402.7,389.1,402.3,389.2z M76.4,310.2c0.8-0.7,1-1.6,0.8-2.8l-0.1-0.7l-9.4,1.7l0.1,0.7c0.2,1.2,0.8,2,1.8,2.3
	c1,0.3,2.2,0.4,3.5,0.2C74.5,311.4,75.6,310.9,76.4,310.2z M388.2,409l2.1-1.8L386,404L388.2,409z"/>
<path class="st1" d="M368.8,210.9c0-8.1,0-16.2,0-24.3c0-2-0.3-2.6-2.6-2.3c-7,0.8-12.6,3.4-17.8,8.5c-8.9,8.8-18.5,17-27.9,25.4
	c-3.9,3.5-8.5,5.9-12.9,8.8c-3.9,2.6-8.1,4.9-10.8,8.9c-0.7,1.1-1.5,1.8-3,0.8c-7-4.9-15.1-5.6-23.2-6.2c-2.3-0.2-4.2-0.6-5.5-2.7
	c-0.9-1.4-2.5-2.3-3.9-3.1c-1.2-0.7-2.1-2-2-3.3c0.1-1.4,1.7-1,2.6-1.3c3.9-1.3,5.8-4.2,6.2-8.1c0.6-6.6,0.1-13.3-0.1-19.9
	c-0.1-2.7,0.3-4.5,3-5.8c3-1.5,5.7-3.7,7.5-6.7c2.1-3.4,1.1-5.5-2.7-6.3c-0.7-0.2-1.4-0.2-2.2-0.3c-5.9-0.9-11.4-1.8-14.8-8.3
	c-2.7-5.1-8.5-6.9-14.4-7c-18.9-0.3-30.3,12-28.9,30.9c0.5,7.3,1.8,14.1,6.5,20c0.8,1,0.8,1.9,0.6,3c-0.4,2.1-0.7,4.3-0.8,6.5
	c-0.2,3.9-0.5,7.8-5.1,9.2c-0.4,0.1-0.9,0.6-1.1,1c-2.4,5.4-7.8,6.7-12.5,9c-12.7,6.2-23.8,14.3-32.5,25.5c-3.2,4.1-6.6,8-9.9,12.1
	c-2.7,3.2-5.1,6.6-9.4,8.2c-3,1.1-5.4,3.7-6.2,6.8c-1.8,6.6-5.2,12.7-6.5,19.6c-1.5,7.8-0.8,9.6,5.8,13.8
	c13,8.3,27.5,12.2,42.4,15.2c2.3,0.5,4.5,1,6.7,1.5c4.1,1,5.5,4.6,3,7.9c-5.2,6.9-10.4,13.6-15.5,20.6c-1.6,2.2-2.7,2.3-4.8,0.6
	c-29.6-23.1-47.8-53-52.7-90.3c-9.1-67.7,31.1-129.8,96.4-149.7c76.6-23.3,158.5,26.5,173,105.3c11.4,62-19.3,122.4-75.8,149.4
	c-3,1.4-4.4,1.2-6.2-1.7c-7.5-12.1-15.3-24.1-23.1-36c-1.5-2.3-1.7-4.2-0.6-6.7c2.1-4.9,4-9.9,5.7-14.9c0.8-2.4,1.8-2.5,3.9-1.3
	c10.1,5.5,20.4,10.6,31.8,12.7c13,2.4,15.2,0.9,18.1-11.9c2-9,1.3-17.5-3.6-25.5c-0.7-1.2-1-2.4-1-3.8c-0.4-8-4.4-13.9-11.3-17.8
	c-1.8-1-3.1-2.2-4.2-3.8c-5.7-8.3-11.5-16.5-18.4-23.8c-1.7-1.8-0.1-5.2,2.8-5.6c10.6-1.6,21.3-3.4,32-4.4c4.5-0.4,9.1,0.8,13.6,1.7
	c4,0.8,7-1.4,10.2-2.8c1.3-0.5,0.8-1.9,0.8-2.9c0-8.1,0-16.2,0-24.3C368.1,210.9,368.4,210.9,368.8,210.9z M355.2,193.6
	c-6.3,6-12.7,11.9-19.3,17.6c-8,7-15.1,15.1-24.7,20c-6.1,3.2-11,7.7-15.4,13c-6.9,8.4-14.3,16.4-21.4,24.7
	c-0.7,0.8-2.2,1.5-0.5,2.9c1.3,1.1,2.3,1,3.3-0.4c0.3-0.5,0.8-0.9,1.2-1.4c8-9.2,16.1-18.4,24-27.6c1.3-1.5,2.7-2.6,4.5-3.5
	c8.1-3.8,15.8-8,22.3-14.5c7.3-7.2,15.1-13.9,22.8-20.8c1.9-1.8,3.6-3.9,6.8-3.4c0.8,0.1,1.3-0.5,1.7-1.2c1.4-2.8,2.8-5.5,4.6-8.9
	C360.9,190.3,357.9,191,355.2,193.6z M208.7,246.2c-14.5,7.1-26.9,16.8-37.1,29.3c-1.4,1.7-1.7,3.2-0.6,5.2c1.2,2.5,3.2,4.6,3.5,7.4
	c-4.2-2.2-8.2-4.5-12.7-6.2c-1-0.4-1.9-0.8-0.9-2.1c13.1-17.4,27.7-32.9,48.8-41.4C209.9,241.5,209.4,243.9,208.7,246.2z
	 M197.7,356.9c5.9-6.8,11.6-13.4,17.4-20c10.5-12.1,21.1-24.2,31.7-36.3c0.7-0.7,1-2.5,2.7-1.5c1.8,1,1.9,1.9,0.5,3.6
	c-9.3,10.5-18.4,21.1-27.6,31.6c-5.9,6.8-12,13.6-17.8,20.5C202.8,357,200.9,357.8,197.7,356.9z M180.7,309.3
	c4.6-4.5,5.3-12.3,13-14c0.6,5.3,1.4,10.9,1.9,16.4c0.2,2.5-3.6,4.2-6.2,2.8C186.4,312.9,183.6,311.1,180.7,309.3z M243.4,160.7
	c-3.8,2.4-8.3,3.8-11.4,7.3c-4.1,4.5-5.7,9.9-5.3,15.9c-2.3,1.6-4.7,3.3-7.1,4.9C215.8,175,228.3,160.4,243.4,160.7z M270.2,175.1
	c1.1,0,2.1-0.1,3.1,0.5c-5.8,5.8-23.5,8.7-32.9,5.8c2.5-2,5.1-3.3,8-4.1C255.9,178.8,263.2,178.1,270.2,175.1z"/>
</svg>
