<svg xmlns="http://www.w3.org/2000/svg" id="Layer_1" width="517.4" height="520.3"><style>.st3{fill:#fff}</style><path id="big-gray" fill="#4c4c4c" d="M517.4 260.2c0 11.1-20.5 20.7-21.9 31.4-1.4 10.9 15.9 25.5 13.2 36-2.8 10.6-25.1 14.5-29.3 24.6-4.2 10.1 8.8 28.8 3.4 38.2-5.4 9.5-28 7.4-34.6 16.1-6.6 8.7 1.1 30.1-6.5 37.8-7.7 7.7-28.9-.1-37.6 6.6-8.6 6.6-6.6 29.3-16 34.8-9.4 5.4-27.9-7.6-38-3.4-10 4.2-13.9 26.6-24.4 29.4-10.4 2.8-24.9-14.7-35.8-13.2-10.6 1.4-20.2 22-31.2 22s-20.6-20.6-31.2-22c-10.9-1.4-25.4 16-35.8 13.2-10.6-2.8-14.5-25.3-24.4-29.4-10.1-4.2-28.6 8.9-38 3.4-9.4-5.5-7.4-28.2-16-34.8-8.6-6.7-29.9 1.1-37.5-6.6-7.7-7.7.1-29.1-6.5-37.8-6.6-8.6-29.2-6.6-34.6-16.1-5.4-9.4 7.6-28.1 3.4-38.2-4.1-10-26.4-14-29.3-24.6-2.8-10.5 14.6-25 13.2-36-1.5-10.8-22-20.4-22-31.4 0-11.1 20.5-20.7 21.9-31.4 1.4-10.9-15.9-25.5-13.2-36 2.8-10.6 25.1-14.6 29.3-24.6 4.2-10.1-8.8-28.8-3.4-38.2 5.5-9.5 28-7.4 34.6-16.1 6.6-8.7-1.1-30.1 6.5-37.8 7.7-7.7 28.9.1 37.5-6.6 8.6-6.6 6.6-29.3 16-34.8 9.3-5.4 27.9 7.6 38 3.4 10-4.2 13.9-26.6 24.4-29.4 10.5-2.7 25 14.8 35.9 13.3 10.6-1.4 20.2-22 31.2-22s20.6 20.6 31.2 22c10.9 1.4 25.4-16 35.8-13.2 10.6 2.8 14.5 25.3 24.4 29.4 10.1 4.2 28.6-8.9 38-3.4 9.4 5.5 7.4 28.2 16 34.8 8.6 6.7 29.9-1.1 37.5 6.6 7.7 7.7-.1 29.1 6.5 37.8 6.6 8.6 29.2 6.6 34.6 16.1 5.4 9.4-7.6 28-3.4 38.2 4.1 10 26.4 14 29.3 24.6 2.8 10.4-14.6 25-13.2 36 1.5 10.6 22 20.2 22 31.3z"/><path id="out-ring" d="M258.7 488.8c-125.4 0-227.4-102.6-227.4-228.7s102-228.7 227.4-228.7S486.1 134 486.1 260.1s-102 228.7-227.4 228.7zm0-451.8c-122.4 0-222 100.1-222 223.2s99.6 223.2 221.9 223.2c122.4 0 222-100.1 222-223.2S381.1 37 258.7 37z" class="st3"/><path id="white-circle" d="M420.2 260.2c0 89.7-72.3 162.4-161.5 162.4S97.2 349.9 97.2 260.2 169.5 97.8 258.7 97.8s161.5 72.7 161.5 162.4z" class="st3"/><path fill="#e0d332" fill-rule="evenodd" d="M368.8 210.9v-24.3c0-2-.3-2.6-2.6-2.3-7 .8-12.6 3.4-17.8 8.5-8.9 8.8-18.5 17-27.9 25.4-3.9 3.5-8.5 5.9-12.9 8.8-3.9 2.6-8.1 4.9-10.8 8.9-.7 1.1-1.5 1.8-3 .8-7-4.9-15.1-5.6-23.2-6.2-2.3-.2-4.2-.6-5.5-2.7-.9-1.4-2.5-2.3-3.9-3.1-1.2-.7-2.1-2-2-3.3.1-1.4 1.7-1 2.6-1.3 3.9-1.3 5.8-4.2 6.2-8.1.6-6.6.1-13.3-.1-19.9-.1-2.7.3-4.5 3-5.8 3-1.5 5.7-3.7 7.5-6.7 2.1-3.4 1.1-5.5-2.7-6.3-.7-.2-1.4-.2-2.2-.3-5.9-.9-11.4-1.8-14.8-8.3-2.7-5.1-8.5-6.9-14.4-7-18.9-.3-30.3 12-28.9 30.9.5 7.3 1.8 14.1 6.5 20 .8 1 .8 1.9.6 3-.4 2.1-.7 4.3-.8 6.5-.2 3.9-.5 7.8-5.1 9.2-.4.1-.9.6-1.1 1-2.4 5.4-7.8 6.7-12.5 9-12.7 6.2-23.8 14.3-32.5 25.5-3.2 4.1-6.6 8-9.9 12.1-2.7 3.2-5.1 6.6-9.4 8.2-3 1.1-5.4 3.7-6.2 6.8-1.8 6.6-5.2 12.7-6.5 19.6-1.5 7.8-.8 9.6 5.8 13.8 13 8.3 27.5 12.2 42.4 15.2 2.3.5 4.5 1 6.7 1.5 4.1 1 5.5 4.6 3 7.9-5.2 6.9-10.4 13.6-15.5 20.6-1.6 2.2-2.7 2.3-4.8.6-29.6-23.1-47.8-53-52.7-90.3-9.1-67.7 31.1-129.8 96.4-149.7 76.6-23.3 158.5 26.5 173 105.3 11.4 62-19.3 122.4-75.8 149.4-3 1.4-4.4 1.2-6.2-1.7-7.5-12.1-15.3-24.1-23.1-36-1.5-2.3-1.7-4.2-.6-6.7 2.1-4.9 4-9.9 5.7-14.9.8-2.4 1.8-2.5 3.9-1.3 10.1 5.5 20.4 10.6 31.8 12.7 13 2.4 15.2.9 18.1-11.9 2-9 1.3-17.5-3.6-25.5-.7-1.2-1-2.4-1-3.8-.4-8-4.4-13.9-11.3-17.8-1.8-1-3.1-2.2-4.2-3.8-5.7-8.3-11.5-16.5-18.4-23.8-1.7-1.8-.1-5.2 2.8-5.6 10.6-1.6 21.3-3.4 32-4.4 4.5-.4 9.1.8 13.6 1.7 4 .8 7-1.4 10.2-2.8 1.3-.5.8-1.9.8-2.9V211c.6-.1.9-.1 1.3-.1zm-13.6-17.3c-6.3 6-12.7 11.9-19.3 17.6-8 7-15.1 15.1-24.7 20-6.1 3.2-11 7.7-15.4 13-6.9 8.4-14.3 16.4-21.4 24.7-.7.8-2.2 1.5-.5 2.9 1.3 1.1 2.3 1 3.3-.4.3-.5.8-.9 1.2-1.4 8-9.2 16.1-18.4 24-27.6 1.3-1.5 2.7-2.6 4.5-3.5 8.1-3.8 15.8-8 22.3-14.5 7.3-7.2 15.1-13.9 22.8-20.8 1.9-1.8 3.6-3.9 6.8-3.4.8.1 1.3-.5 1.7-1.2 1.4-2.8 2.8-5.5 4.6-8.9-4.2.2-7.2.9-9.9 3.5zm-146.5 52.6c-14.5 7.1-26.9 16.8-37.1 29.3-1.4 1.7-1.7 3.2-.6 5.2 1.2 2.5 3.2 4.6 3.5 7.4-4.2-2.2-8.2-4.5-12.7-6.2-1-.4-1.9-.8-.9-2.1 13.1-17.4 27.7-32.9 48.8-41.4.2 3.1-.3 5.5-1 7.8zm-11 110.7c5.9-6.8 11.6-13.4 17.4-20 10.5-12.1 21.1-24.2 31.7-36.3.7-.7 1-2.5 2.7-1.5 1.8 1 1.9 1.9.5 3.6-9.3 10.5-18.4 21.1-27.6 31.6-5.9 6.8-12 13.6-17.8 20.5-1.8 2.2-3.7 3-6.9 2.1zm-17-47.6c4.6-4.5 5.3-12.3 13-14 .6 5.3 1.4 10.9 1.9 16.4.2 2.5-3.6 4.2-6.2 2.8-3-1.6-5.8-3.4-8.7-5.2zm62.7-148.6c-3.8 2.4-8.3 3.8-11.4 7.3-4.1 4.5-5.7 9.9-5.3 15.9-2.3 1.6-4.7 3.3-7.1 4.9-3.8-13.8 8.7-28.4 23.8-28.1zm26.8 14.4c1.1 0 2.1-.1 3.1.5-5.8 5.8-23.5 8.7-32.9 5.8 2.5-2 5.1-3.3 8-4.1 7.5 1.5 14.8.8 21.8-2.2z" clip-rule="evenodd"/><path fill="#4c4c4c" fill-rule="evenodd" d="M107.8 259.9c.1-83.2 67.8-150.8 151-150.8 83.8 0 151 67.7 150.9 151.9-.1 82.9-68.1 150.1-151.8 149.9-82.6-.1-150.2-68.1-150.1-151zm140.7-82.6c-2.9.7-5.5 2.1-8 4.1 9.4 2.9 27.2.1 32.9-5.8-1-.6-2.1-.5-3.1-.5-7.7-3.2-14.9-1.3-21.8 2.2zm-5.1-16.6c-15.1-.4-27.6 14.3-23.8 28.1 2.4-1.7 4.7-3.3 7.1-4.9 10.4-5.6 21.2-10.3 33.1-13.3-4.6-5.4-9.1-9.9-16.4-9.9zm41.3 114.6c2.8 2.6 2.6 6.5 4 9.6.9 2 7.7 6.6 9.8 6.4.7-.1 1-.6 1.3-1.1 4.4-7.9 11.8-11.6 19.9-14 2.8-.8 2.7-1.7 1.5-3.8-4.1-7.5-9.3-14.1-15.3-20.1-1.4-1.4-2.2-1.2-3.3.3-3.5 4.5-7.2 8.8-10.7 13.3-2.4 3-5.5 5.7-7.2 9.4-4.5 3.5-4.7 4.4-2.2 8.3.9-2.8 1.9-5.5 2.2-8.3zm-76-29.1c.6-2.4 1.2-4.7 1-7.6-21.2 8.5-35.8 24-48.8 41.4-.9 1.2-.1 1.7.9 2.1 4.4 1.6 8.5 4 12.7 6.2 2.4 2 5.1 3.8 6.9 6.4.9 1.3 1.9 1.2 3.1.7 4.1-1.6 7.2-6 7.5-10.5.3-5.6 1.4-11.1 4.8-16.4.2 1 .2 1.4.3 1.7 1 13.1 2 26.3 2.9 39.4.2 2.5.5 3.6 3.2 2 3.1-1.8 6.6-3 10.3-3.1 1.2 0 2.8-.3 3.4.6 1.6 2.6 3 1.2 4.6.1 3.8-2.6 6-2.4 9 1.2 1.3 1.5 1.9 1.3 3-.1 3.1-3.7 6.3-7.4 9.4-11 1.2-1.4 2.4-2.5 1.5-4.9-.7-2 .5-4.2 1.7-6.1 2.1-3.3 3.8-6.8 6.5-9.7.9-1 1.7-2.1-.3-3.4-2.2-1.5-1.7-3.5.8-4.6 2.9-1.3 5.8-2.3 8.7-3.7 1.8-.9 3.5-.9 5.1.1 1.9 1.2 3 .8 4.5-.9 6.3-7.5 12.6-15 19.1-22.3 2.2-2.5 1.4-3.7-1-4.6a81.3 81.3 0 0 0-20.1-4.5c-2-.2-2.7.4-2.7 2.6-.1 4.9-1 9.6-3.5 13.9-1.5 2.5-2.7 3.5-5.1.6-3.4-3.9-4.5-3.8-8.8-.6l-4.8 3.3c-.3-.2-.5-.4-.8-.6 2-2.4 4.1-4.8 6-7.3 2.1-2.9 4.4-3 7.2-1.1.8.5 1.6 1.1 2.7 1.8 1.4-4.6 2.6-9 1.9-13.6-.2-1.1-.5-2.4-1.5-2.8-1.3-.5-1.7 1-2.4 1.8l-24.9 31.2c-1.1 1.4-2.2 2.7-3.5 4.4-.5-1-.7-1.5-.9-2-4.1-10.5-7.1-21.3-7.2-32.7 0-2.9-1.2-2.7-3-1.5-.6.4-1.2.9-1.6 1.5-3.5 5.4-4.9 11.3-4.1 18 4-3.9 4-3.9 7.3-3.4-.6.9-1.1 1.6-1.7 2.4-1.8 2.4-3.7 4.8-5.5 7.2-1.4 1.9-1.9.3-2.4-.7-1.9-3.6-1.4-7.3-1.4-10.9zm160.1-35.3h-1.1v24.3c0 1 .4 2.4-.8 2.9-3.3 1.3-6.2 3.6-10.2 2.8-4.5-.9-9.2-2.1-13.6-1.7-10.7 1-21.3 2.8-32 4.4-3 .5-4.5 3.8-2.8 5.6 6.9 7.4 12.7 15.6 18.4 23.8 1.1 1.6 2.4 2.8 4.2 3.8 6.9 3.9 10.9 9.8 11.3 17.8.1 1.4.3 2.6 1 3.8 4.9 8 5.6 16.6 3.6 25.5-2.9 12.7-5.1 14.2-18.1 11.9-11.5-2.1-21.7-7.3-31.8-12.7-2.1-1.1-3.1-1.1-3.9 1.3-1.8 5-3.6 10-5.7 14.9-1.1 2.5-.9 4.4.6 6.7 7.8 11.9 15.6 23.9 23.1 36 1.8 2.9 3.2 3.1 6.2 1.7 56.5-27 87.2-87.4 75.8-149.4-14.5-78.8-96.4-128.7-173-105.3-65.3 19.9-105.5 82-96.4 149.7 5 37.3 23.2 67.2 52.7 90.3 2.1 1.6 3.2 1.6 4.8-.6 5-7 10.3-13.7 15.5-20.6 2.5-3.3 1.1-7-3-7.9l-6.7-1.5c-14.9-3-29.4-7-42.4-15.2-6.6-4.2-7.3-6-5.8-13.8 1.3-6.8 4.6-12.9 6.5-19.6.9-3.1 3.3-5.6 6.2-6.8 4.2-1.6 6.7-5 9.4-8.2 3.3-4 6.7-8 9.9-12.1 8.7-11.2 19.8-19.4 32.5-25.5 4.7-2.3 10.1-3.6 12.5-9 .2-.4.6-.8 1.1-1 4.6-1.5 4.8-5.3 5.1-9.2.1-2.2.5-4.3.8-6.5.2-1.1.2-2.1-.6-3-4.7-5.8-6-12.7-6.5-20-1.4-18.9 10-31.2 28.9-30.9 5.9.1 11.7 1.9 14.4 7 3.4 6.5 8.9 7.3 14.8 8.3l2.2.3c3.8.8 4.7 2.9 2.7 6.3-1.8 3-4.5 5.2-7.5 6.7-2.6 1.3-3.1 3.1-3 5.8.2 6.6.7 13.3.1 19.9-.3 3.9-2.2 6.8-6.2 8.1-.9.3-2.6-.1-2.6 1.3-.1 1.3.8 2.6 2 3.3 1.5.9 3 1.7 3.9 3.1 1.3 2.1 3.2 2.5 5.5 2.7 8.1.6 16.2 1.3 23.2 6.2 1.4 1 2.3.3 3-.8 2.7-4.1 6.9-6.3 10.8-8.9 4.3-2.9 9-5.3 12.9-8.8 9.4-8.4 18.9-16.6 27.9-25.4 5.1-5.1 10.8-7.7 17.8-8.5 2.3-.3 2.6.3 2.6 2.3-.3 8.2-.2 16.3-.2 24.4zm-89.4 90c.5-1.2.7-2.1 1.1-2.7 2-3.1 1.4-6 .5-9.5-2-7.1-5.8-12.2-12.4-15.3-1.4-.7-2.7-1.6-4-2.5-1.7-1.3-3.3-1.8-4.6.2-1.3 2-.6 3.6 1.2 4.9 2 1.4 3.9 2.9 5.8 4.4.9.7 2.6 1.4 1.7 2.7-1 1.6-2.1-.2-3-.7-2.2-1.3-4.3-2.8-6.3-4.3-2.2-1.7-3-.4-3.6 1.4-.5 1.4.1 2.5 1.4 3.4 2.1 1.5 4 3.1 6.1 4.6.8.6 1 1.4.5 2.2-.8 1.2-1.5.2-2.1-.2-1.9-1.3-3.6-2.8-5.5-4.1-1-.7-2-2.5-3.5-.4-1.1 1.6-1.2 3 .5 4.4 2 1.6 4 3.2 5.8 4.9.7.6 2.5 1.1 1.4 2.4-1 1.1-1.9-.5-2.6-1-1.6-1.1-3.1-2.4-4.6-3.5-1.2-.9-2.3-2.4-3.8-.3-1.3 1.7-1 2.9.7 4.2 3.4 2.5 6.9 5 9.9 7.9 4.8 4.6 10.5 6.3 16.9 5.8 2.3-.2 4.1.5 6.1 1.7 10.9 6.8 22 13.1 34.2 17.3 6.4 2.2 13 3.7 19.9 3.4 1.6-.1 2.9-.3 3.7-2.1 2.7-6.4 4-13 2.6-19.8-1-4.9-2.2-10.6-6.5-12.9-6.7-3.7-14.3-3.6-22.3-.6 5.3 1.8 9.8 3.4 14.4 5-.8.6-1.4.6-2 .5-12.6-2.3-25.2-4.5-37.8-6.9-2.4-.5-4.1-.4-5.3 2.2a5.7 5.7 0 0 1-4.5 3.3zm-48.5-92c-.9 1.6-1.8 3-3.9 2.2-.9-.3-.9.2-1 .8-2.1 10.8-3.2 21.5 1.1 32 .4 1 .8 1.6 1.9 2 5.2 1.9 11.2.3 14.8-3.9l4.9-5.8c3.4-4.1 3.5-5.9-.2-9.9-2.5-2.6-5.4-4.9-8-7.3-2.6-2.5-5-5.1-5.6-9 6.7 6.9 14.6 9 23.8 7.3 3.3-.6 5.2-2.2 5.9-5.4 1.4-6.6 1-13.2.2-19.8-.1-.6-.1-1.2-.7-1.6-4.2-2.5-8.4-4.2-13.1-.9-2.2 1.6-4.9 1.8-7.8 1.1.6-1.1 1-2 1.5-2.9-7.6-1.9-7.6-1.9-9.7 4.3-1.6 4.8-2.9 5.3-7.2 2.8-1.6-.9-3.1-1.5-4 .9-1.9 4.7 2.1 12.2 7.1 13.1zm-19.2 109c2.4 1.6 3 4.2 4.6 6.2.8 1 1.2 3.1 3.1 1.9 1.7-1.1 1.7-2.7.7-4.4-1.3-2.2-2.6-4.4-3.5-6.7-1.2-3.3-3.2-3.5-6.1-2.3-5.4 2.2-10.9 4.1-16.2 6.2-2.7 1.1-4.9.9-7.4-.8-6-3.9-12.1-7.5-18.2-11.2-.5-.3-1.4-.2-1.4-.9.1-3.9-3.4-4.6-5.8-5.5-13.9-5.5-16.8-3.6-19.1 11.8-.3 2.2.5 3.7 2.4 5.2 13.1 10.6 28.4 15.2 44.8 16.6 4.6.4 8.8.9 11.8 4.9.9 1.2 2.2 1.6 3.4.5 1.3-1.1 1.5-2.4.5-3.8s-2-2.7-2.9-4.1c-.6-.8-1.6-1.6-.3-3.2 1.4 1.9 2.7 3.7 4.1 5.4.9 1.1 1.4 3.3 3.5 1.5 1.6-1.4 2.5-2.8.8-4.9-1.3-1.6-2.3-3.4-3.4-5.1-.5-.8-1.8-1.9-.4-2.7 1.1-.7 1.5.9 1.9 1.6 1.2 1.9 2.3 4 3.6 5.9.5.8.7 2.5 2.2 1.5 1.2-.8 2.4-1.8 1.6-3.5-.5-1.1-1.2-2.1-1.7-3.2-1.1-2.2-3.3-3.9-2.6-6.9zm12.6 31.3c16.1.8 22.1-2.3 29.9-15.5 3.6-6 5.8-12.8 8.9-19 2.2-4.3.1-5.6-2.6-7.4-1.2-.8-1.8-.7-2.6.4-11 13.7-22.1 27.4-33.6 41.5zm140.8-159.1c-4.2.2-7.2.9-9.9 3.5-6.3 6-12.7 11.9-19.3 17.6-8 7-15.1 15.1-24.7 20-6.1 3.2-11 7.7-15.4 13-6.9 8.4-14.3 16.4-21.4 24.7-.7.8-2.2 1.5-.5 2.9 1.3 1.1 2.3 1 3.3-.4.3-.5.8-.9 1.2-1.4 8-9.2 16.1-18.4 24-27.6 1.3-1.5 2.7-2.6 4.5-3.5 8.1-3.8 15.8-8 22.3-14.5 7.3-7.2 15.1-13.9 22.8-20.8 1.9-1.8 3.6-3.9 6.8-3.4.8.1 1.3-.5 1.7-1.2 1.4-2.7 2.9-5.5 4.6-8.9zm-28.5 103.3c0-6.5-4-11.6-9.7-12.9-8.6-1.9-19.5 2.9-24.1 10.6-.4.7-1.3 1.7.1 1.9 3.2.4 6.3 2.4 9.8.9 7.8-3.6 15.8-5 23.9-.5zm-138.9 63.5c3.1 1 5 .1 6.9-2.1 5.8-6.9 11.8-13.7 17.8-20.5 9.2-10.6 18.4-21.2 27.6-31.6 1.5-1.7 1.3-2.6-.5-3.6-1.7-1-2.1.8-2.7 1.5-10.6 12.1-21.2 24.2-31.7 36.3-5.7 6.5-11.5 13.2-17.4 20zm-17.6-58c0-.2-1-.6-1.7-1.3-5.4-4.8-11.4-8.4-18.2-10.9-4.4-1.7-6.8-1-9.7 2.6-.8 1-1.9 2.2-1.5 3.5.4 1.6 2.2 1 3.4 1.2 8.4 1.2 16 3.6 20.9 11.3.4.6.8 1.1 1.7.8 2-.5 5.3-4.4 5.1-7.2zm.6 10.4c2.9 1.7 5.7 3.5 8.7 5.2 2.5 1.4 6.4-.3 6.2-2.8-.5-5.6-1.3-11.2-1.9-16.4-7.7 1.7-8.4 9.5-13 14zm49.7-46.8c2-3.8 3.7-6.8 5.4-9.9.3-.6.9-1.7.1-1.8-2.7-.4-5.5-.5-8.3-.5-.8 0-.6.9-.4 1.4 0 .1.1.2.1.3 1 3.3 2 6.5 3.1 10.5zm-4.7 55.4c.8 0 2.2-.1 2-1.7-.2-1.4-1-2.7-2.9-2.5-1.5.2-3.2.7-3.2 2.2 0 2.1 2.1 1.8 4.1 2zm37-122.3c-3.4-1-5.4.7-7 3.8 3.4.3 6.5.5 7-3.8zm-1.3 9.5c.6-.2 1.6 0 1.4-1-.1-1-.8-1.1-1.8-1.2-2.2-.2-4.1.3-6.4 2.2 2.8.1 4.8.7 6.8 0zm-1 4.3c.5 0 .9-.4.9-.9.1-.6-.3-.9-.9-.8-1.8.3-3.9-.3-5.6 2 2.3-.1 3.9-.2 5.6-.3z" clip-rule="evenodd"/><path id="STAR_1_" d="M82.4 239.5l-10.9-6.1-10.6 6.6 2.4-12.3-9.5-8 12.4-1.5 4.7-11.6 5.2 11.3 12.4.9-9.1 8.6z" class="st3"/><path id="STAR" d="M457.8 239.5l-10.9-6.1-10.6 6.6 2.4-12.3-9.5-8 12.4-1.5 4.7-11.6 5.2 11.3 12.4 1-9.1 8.5z" class="st3"/><g id="CZYSCIMY"><path d="M118.4 159.9c-2.8 1.4-5.9 1.9-9.2 1.6-3.3-.4-6.6-1.8-10-4.3-2.8-2.1-5-4.5-6.5-7.2s-2.2-5.5-2.1-8.5c.1-3 1.2-5.8 3.3-8.6a9 9 0 0 1 3.9-3.1c1.5-.6 3-.8 4.4-.6l-2.4-3 4.3-5.7 12.1 8.9-4.4 5.9-.6-.4a8.37 8.37 0 0 0-4.6-1.8c-1.5 0-2.8.7-3.9 2.1-.7 1-1 2.1-.8 3.4.1 1.3.6 2.7 1.5 4 .8 1.3 1.9 2.5 3.2 3.4 2.5 1.8 4.9 2.6 7.2 2.4 2.3-.2 4.3-1.4 5.8-3.5 1.1-1.5 1.9-3.1 2.4-4.8.5-1.7.7-3.1.7-4.4l.6-.2 7.9 5.8c-.2 2.2-.8 4.3-1.8 6.3-.9 2-2.1 4-3.6 5.9-2.2 2.9-4.6 5-7.4 6.4zM141.4 133.8l-4.9-6.4-.2-25.7-5.7 4.4 2.9 6.8-5.2 4.1-9.3-12 25.3-19.6 4.6 5.9.4 25.9 5.6-4.3-2.7-7.6 5.1-3.9L167 114l-25.6 19.8zM184.1 105.7l-2.9-7.7 3.3-1.3-2.4-6.3-13.8-9.2-2.4.9-2.9-7.6 18.3-6.9 2.9 7.6-1.9.7 6.1 4.2.9-6.9-3.1 1.2-2.9-7.6 13.7-5.2 2.9 7.6-3.9 1.5-2.3 14 2.8 7.4 3.4-1.3 2.9 7.7-18.7 7.2zM233 92.5c-1.2-.3-2.4-.9-3.8-1.7l-.5 2.2-7.4.9-1.3-11.2 7.3-.9c.6 1.2 1.4 2 2.5 2.5 1 .4 2.3.5 3.7.4.9-.1 1.6-.4 2.2-.8.6-.4.8-.9.8-1.5-.1-.7-.5-1.3-1.2-1.6-.7-.3-1.6-.5-2.8-.7-3-.5-5.5-1.1-7.5-1.8s-3.7-1.9-5-3.5c-1.4-1.6-2.2-3.8-2.5-6.7-.3-2.2 0-4.2.7-6 .8-1.8 2-3.3 3.6-4.4 1.7-1.1 3.7-1.8 6.1-2.1 2.9-.3 5.4.3 7.3 2l.9-2.3 6.5-.8 1.3 10.9-7 .8c-.8-1.3-1.6-2.2-2.5-2.6-.9-.4-2-.6-3.3-.4-1.1.1-1.9.4-2.4.8s-.8 1-.7 1.6c.1.7.6 1.2 1.4 1.5.9.3 2.1.5 3.7.7 2.8.3 5.2.8 7.2 1.5s3.7 1.8 5 3.4a12 12 0 0 1 2.5 6.4c.3 2.3 0 4.4-.7 6.3-.7 1.9-1.9 3.6-3.6 4.8-1.6 1.3-3.6 2-5.9 2.3-1.9.3-3.4.3-4.6 0zm-6.9-39.2l-2.5-3.2 10.8-8.6 3.8 5.9-12.1 5.9zM269.8 89.5c-2.7-1.6-4.7-4-6.2-6.9-1.4-3-2-6.6-1.7-10.7.3-3.5 1.2-6.6 2.6-9.3 1.5-2.7 3.5-4.8 6.1-6.3 2.6-1.5 5.6-2.1 9.1-1.8 1.8.1 3.3.7 4.7 1.6 1.3.9 2.3 2.1 2.8 3.4l1.2-3.6 7.1.6-1.2 14.9-7.3-.6.1-.7c.2-1.9-.2-3.6-1-4.9-.8-1.3-2.1-2-3.8-2.2-1.2-.1-2.3.3-3.4 1.1s-1.9 2-2.6 3.4c-.7 1.4-1.1 2.9-1.2 4.5-.2 3.1.3 5.5 1.7 7.4 1.4 1.9 3.4 2.9 6.1 3.1 1.9.1 3.6 0 5.3-.5 1.7-.5 3-1.1 4.1-1.7l.5.5-.8 9.7c-2 1-4.1 1.6-6.3 1.9s-4.5.3-6.9.1c-3.2-.4-6.3-1.3-9-3zM305.3 95.7l2.3-7.8 3.5 1 5.7-19.5-3.5-1 2.3-7.8 18.3 5.3-2.3 7.8-3.5-1-5.7 19.5 3.5 1-2.3 7.8-18.3-5.3zM334.3 103.2l4.5-6.7 3.7 2.4 11.3-17-3.7-2.4 4.5-6.7L371 83.7l-3.8 18.6 15.6-10.8 15.3 10.2-4.5 6.7-3.7-2.4-11.3 17 3.7 2.4-4.5 6.7-15.9-10.6 4.5-6.7 2.5 1.6 7.5-11.4-18.7 13.6-5.7-3.6 4.3-23.8-7.8 11.8 3.1 2-4.5 6.7-12.8-8.5zM388.3 146.5l6.6-4.9 2.1 2.8 5.4-4 5.2-15.7-1.5-2.1 6.5-4.8 11.5 15.8-6.5 4.8-1.2-1.7-2.5 7 6.9-.9-2-2.7 6.5-4.8 8.6 11.8-6.5 4.8-2.4-3.3-14.1 1.5-6.4 4.7 2.1 2.9-6.6 4.9-11.7-16.1z" class="st3"/></g><g id="dywany_x2C__wykladziny_x2C__tapicerki"><path d="M66.4 301.3l.3 1.7 9.4-1.7-.3-1.7 3.7-.7 1.4 7.8c.6 3.1.3 5.5-.8 7.4-1.1 1.9-3.1 3.1-5.8 3.6-2.7.5-4.9.1-6.7-1.3s-2.9-3.6-3.5-6.7l-1.4-7.8 3.7-.6zm1.4 7.8c.2 1.2.8 2 1.8 2.3s2.2.4 3.5.2c1.4-.3 2.5-.7 3.2-1.4.8-.7 1-1.6.8-2.8l-.1-.7-9.4 1.7.2.7zM68.2 327l3.6-1.2.5 1.6 3-1 4.5-6.3-.4-1.1 3.6-1.2 2.9 8.7-3.6 1.2-.3-.9-2.1 2.8 3.2.5-.5-1.5 3.6-1.2 2.2 6.5-3.6 1.2-.6-1.8-6.5-1.3-3.5 1.2.5 1.6-3.6 1.2-2.9-9zM75.9 347.4L86 338l-.8-1.6 3.4-1.7 4.4 8.5-3.4 1.7-.7-1.4-4.6 4.3 10.1-2.1 2 3.9-7.3 6.8 5.9-1.2-.7-1.3 3.4-1.7 3.3 6.3-3.4 1.7-.8-1.6-13.5 2.9-2.7-5.2 5.8-5.3-7.7 1.6-2.8-5.2zM87.6 368.9l3.1-2.2 1 1.4 9.5-3.1-1.3-1.8 3.1-2.2 6.1 8.7-8.7 10.8 1 1.4-3.1 2.2-5.5-7.9 3.1-2.2.8 1.1 1.2-1.4-2.2-3.2-1.8.7 1.2 1.7-3.1 2.2-4.4-6.2zm10.5.6l1.6 2.3 3.6-4-5.2 1.7zM100.1 386.3l2.9-2.5 1.1 1.3 7.1-6.3-1.1-1.3 2.8-2.5 5.2 5.9-4.1 10.7 4.8-4.2-1.1-1.3 2.8-2.5 4.5 5.1-2.8 2.5-1.1-1.3-10 8.8-4.3-4.9 3.7-10-4.2 3.7 1.1 1.3-2.9 2.5-4.4-5zM117.4 405.1l2.6-2.8 1.2 1.1 2.1-2.3 1-7.7-.9-.8 2.6-2.8 6.7 6.2-2.6 2.8-.7-.7-.5 3.4 3.1-1-1.1-1.1 2.6-2.8 5 4.7-2.6 2.8-1.4-1.3-6.3 1.9-2.5 2.7 1.2 1.2-2.6 2.8-6.9-6.3zM157.1 435.6l3.1-13.5-1.5-.8 1.8-3.3 8.4 4.6-1.8 3.3-1.4-.8-1.4 6.2 7.2-7.4 3.9 2.1-2.2 9.7 4.2-4.3-1.3-.7 1.8-3.3 6.2 3.4-1.8 3.3-1.6-.9-9.6 9.9-5.1-2.8 1.8-7.7-5.5 5.6-5.2-2.6zM182.5 448.4l1.4-3.6 1.5.6 1.2-2.9-1.8-7.5-1.1-.4 1.4-3.5 8.5 3.4-1.4 3.5-.9-.4.8 3.4 2.5-2.1-1.5-.6 1.4-3.5 6.4 2.5-1.4 3.5-1.8-.7-5.2 4.1-1.4 3.5 1.6.6-1.4 3.6-8.8-3.5zM199.2 450.8l1.6.5 2.6-9.2-1.6-.5 1-3.6 8.2 2.4-1 3.6-1.3-.4-1.1 3.7 3.8-3 1-3.6 6.4 1.8-1 3.6-1.4-.4-4.4 3v.1c1.1.3 1.9.8 2.5 1.3s.7 1.3.4 2.3l-.5 1.7c-.1.2-.1.4 0 .6.1.2.2.3.4.4l1.2.3-1 3.6-3.8-1.1c-2.3-.7-3.2-2.1-2.6-4.2l.5-1.8c.1-.4.1-.7 0-1.1-.1-.4-.3-.6-.7-.7l-1.5-.4-.8 2.9 1.6.5-1 3.6-8.6-2.5 1.1-3.4zM230.5 454.5l3 .6-1.4 7.5-13.4-2.5.7-3.8 1.5.3.3-1.7-.9.3-.7-2.1 2.1-.7 1-5.4-1.6-.3.7-3.7 9.2 1.7-.7 3.7-1.6-.3-.4 1.9 1.4-.5.7 2.1-2.6.9-1 5.2 2 .4 1.7-3.6zM235.2 463l.3-3.8 1.7.1 3.7-9.2-2.2-.2.3-3.8 10.6.9 2.7 13.6 1.7.1-.3 3.8-9.6-.8.3-3.8 1.4.1-.3-1.9-3.9-.3-.6 1.8 2 .2-.3 3.8-7.5-.6zm7.2-7.6l2.8.2-.8-5.3-2 5.1zM256.2 460.8h1.7l-.2-9.5H256l-.1-3.8 7.9-.2c3.1-.1 5.5.6 7.2 2s2.6 3.5 2.6 6.3c.1 2.7-.7 4.9-2.3 6.4-1.6 1.5-4 2.3-7.1 2.4l-7.9.2-.1-3.8zm7.9-.1c1.2 0 2.1-.5 2.6-1.4.5-.9.8-2.1.7-3.4 0-1.4-.3-2.5-.9-3.4-.6-.9-1.5-1.3-2.7-1.3h-.7l.2 9.5h.8zM278 463.9l-.5-3.7 6.1-10.4-3.4.4-.4 3.4-3.1.4-.9-7.1 14.9-1.8.4 3.5-6 10.5 3.3-.4.7-3.7 3-.4.9 7.4-15 1.9zM297 461.2l-.8-3.7 1.7-.3-1.9-9.3-1.7.3-.8-3.7 8.8-1.8.8 3.7-1.7.3 1.9 9.3 1.7-.3.8 3.7-8.8 1.8zM309.1 458.8l-1.1-3.7 1.7-.5-2.7-9.1-1.6.5-1.1-3.6 7.6-2.2 8 8.2-1.8-6.1-1.6.5-1.1-3.6 6.6-1.9 1.1 3.6-1.6.5 3.8 12.8-6.2 1.8-7.5-7.6 1.6 5.4 1.6-.5 1.1 3.7-6.8 1.8zM333.3 451l-1.5-3.6 1.5-.6-1.2-2.9-6.6-4.1-1.1.5-1.4-3.5 8.5-3.5 1.4 3.5-.9.4 2.9 1.9.3-3.2-1.4.6-1.4-3.5 6.3-2.6 1.4 3.5-1.8.7-.9 6.6 1.4 3.4 1.6-.6 1.5 3.6-8.6 3.4zM375.7 428.8l-2.2-3.2 1.4-1-5.5-7.7-1.2.9 1.3 2.7-2.5 1.7-3.9-5.5 13.1-9.3 3.9 5.5-2.5 1.7-2.1-2.1-1.3.9 5.5 7.7 1.4-1 2.2 3.2-7.6 5.5zM388.7 419.5l-2.5-2.9 1.3-1.1-4-9.1-1.7 1.5-2.5-2.9 8-7 11.6 7.6 1.3-1.1 2.5 2.9-7.3 6.3-2.5-2.9 1-.9-1.5-1.1-2.9 2.5.8 1.7 1.5-1.3 2.5 2.9-5.6 4.9zm-.5-10.5l2.1-1.8-4.3-3.2 2.2 5zM401.9 402.7l1.2-1.2-6.9-6.5-1.1 1.2-2.8-2.6 6.3-6.6c1.4-1.5 2.9-2.5 4.3-3 1.5-.5 2.9-.1 4.2 1.2 1.6 1.5 2.3 3 2.2 4.5s-1 3.1-2.6 4.9c-.4.4-.8.8-1.2 1.1l1.6 1.6 1.1-1.1 2.8 2.7-6.4 6.7-2.7-2.9zm1.5-9.8c1.1-1.2 1.2-2.3.1-3.3-.4-.4-.8-.5-1.3-.5-.5.1-.9.3-1.3.7l-.6.7 2.8 2.6.3-.2zM418.4 390.4l-2.9-2.4 1.1-1.3-7.4-6-1.1 1.3-2.9-2.4 5.6-6.9 2.9 2.4-1.1 1.3 7.4 6 1.1-1.3 2.9 2.4-5.6 6.9zM427.9 377.1c-1.3.7-2.7 1-4.3.9a9.2 9.2 0 0 1-4.7-1.8c-1.4-.9-2.4-2-3.2-3.3a7.01 7.01 0 0 1 .3-8c.5-.7 1.1-1.2 1.8-1.5s1.4-.4 2-.3l-1.2-1.3 1.9-2.8 5.8 4-2 2.8-.3-.2c-.7-.5-1.5-.8-2.2-.8s-1.3.4-1.8 1c-.3.5-.4 1-.3 1.6.1.6.3 1.2.8 1.8.4.6.9 1.1 1.5 1.5 1.2.8 2.3 1.2 3.4 1 1.1-.1 2-.7 2.7-1.7a8.81 8.81 0 0 0 1.3-4.4l.3-.1 3.8 2.6a10.88 10.88 0 0 1-2.3 5.8c-.9 1.5-2 2.5-3.3 3.2zM436.6 365.4l-3.3-1.8 1-1.8-8.3-4.7-1 1.8-3.3-1.8 7-12.6 5.9 3.3-1.3 2.4-3.1-.6-1.5 2.7 2.4 1.4 1.3-2.4 2.5 1.4-1.3 2.4 3.4 1.9 1.5-2.7-2.5-2.6 1.3-2.4 6.4 3.6-7.1 12.5zM441.8 348.1l.7-1.6-8.8-3.7-.7 1.6-3.5-1.5 4.3-10.1c.7-1.6 1.5-2.7 2.5-3.2s2.2-.4 3.8.2c1 .4 1.7 1.1 2 1.9s.3 1.8.1 2.9c.5-.9 1.2-1.4 1.9-1.6.7-.2 1.5-.1 2.4.3l1.3.5.9-2.2 3.5 1.5-1.3 3.2c-.4 1-.8 1.7-1.1 2.1-.3.4-.8.6-1.5.6s-1.8-.3-3.2-.9c-.8-.3-1.5-.5-2-.4-.5.1-.9.5-1.2 1.2l-.5 1.2 3.3 1.4.7-1.6 3.5 1.5-3.5 8.2-3.6-1.5zm-2.2-10.3c.3-.7.4-1.3.3-1.8-.1-.5-.5-.8-1.1-1.1-.5-.2-.9-.2-1.3.1-.4.2-.8.6-1 1.2l-.7 1.6 3.3 1.4.5-1.4zM449.7 328.8l.5-1.7-9.2-2.5-.5 1.7-3.7-1 2.3-8.3 3.7 1-.4 1.3 3.8 1-3-3.8-3.7-1 1.8-6.5 3.7 1-.4 1.4 3.1 4.4h.1c.3-1.1.7-1.9 1.3-2.5.6-.5 1.3-.7 2.3-.4l1.7.5c.2.1.4 0 .6 0 .2-.1.3-.2.4-.4l.3-1.2 3.7 1-1 3.8c-.6 2.3-2 3.2-4.1 2.6l-1.8-.5c-.4-.1-.7-.1-1.1.1s-.6.4-.7.7l-.4 1.5 2.9.8.5-1.7 3.7 1-2.3 8.6-4.1-.9zM458.5 308.7l-3.7-.5.2-1.7-9.4-1.4-.2 1.7-3.7-.5 1.3-8.8 3.7.5-.2 1.7 9.4 1.4.2-1.7 3.7.5-1.3 8.8z" class="st3"/><path id="little_star" d="M143.3 421.2l-1.2-3-3.2-.3 2.5-2.1-.6-3.1 2.7 1.7 2.7-1.6-.7 3.1 2.3 2.2-3.2.2z" class="st3"/><path id="little_star_1_" d="M359.9 433.9l-3.1-.4-1.8 2.6-.7-3.1-3-.9 2.7-1.6-.1-3.2 2.4 2.2 2.9-1.1-1.2 2.9z" class="st3"/></g></svg>